<svg width="452" height="191" viewBox="0 0 452 191" fill="none" xmlns="http://www.w3.org/2000/svg">
<path d="M132.838 24.4878C132.672 23.8211 132.63 23.1545 132.713 22.4878C132.88 21.7378 132.963 20.9878 132.963 20.2378C132.963 19.5711 132.838 18.9461 132.588 18.3628C132.422 17.7795 132.38 17.1545 132.463 16.4878C133.047 15.1545 133.797 14.4461 134.713 14.3628C135.713 14.1961 136.588 14.2795 137.338 14.6128C137.422 14.8628 137.547 15.1128 137.713 15.3628C137.88 15.6128 138.005 15.8628 138.088 16.1128C137.922 16.2795 137.713 16.3211 137.463 16.2378C137.213 16.1545 136.963 16.1128 136.713 16.1128C136.047 16.3628 135.588 16.7795 135.338 17.3628C135.088 17.9461 134.963 18.6128 134.963 19.3628C134.88 20.2795 134.88 21.3211 134.963 22.4878C135.13 23.6545 135.213 24.6545 135.213 25.4878C135.297 26.3211 135.13 26.8211 134.713 26.9878C134.13 26.6545 133.797 26.4461 133.713 26.3628C133.63 26.1961 133.588 25.9878 133.588 25.7378C133.422 25.5711 133.255 25.4045 133.088 25.2378C133.005 24.9878 132.922 24.7378 132.838 24.4878ZM252.088 103.738C251.088 104.071 250.255 104.113 249.588 103.863C248.922 103.613 248.297 103.279 247.713 102.863C247.13 102.363 246.505 101.946 245.838 101.613C245.255 101.196 244.547 101.029 243.713 101.113C243.047 101.196 242.505 101.404 242.088 101.738C241.672 102.071 241.255 102.404 240.838 102.738C240.005 103.321 239.047 103.863 237.963 104.363C237.13 104.363 236.38 104.321 235.713 104.238C235.047 104.154 234.38 104.279 233.713 104.613C232.713 104.446 231.88 104.404 231.213 104.488C230.547 104.571 229.755 104.571 228.838 104.488C228.588 104.404 228.213 104.446 227.713 104.613C227.297 104.696 226.88 104.779 226.463 104.863C226.13 104.946 225.797 104.988 225.463 104.988C225.13 104.904 224.755 104.904 224.338 104.988C224.005 104.988 223.672 105.029 223.338 105.113C223.005 105.196 222.63 105.196 222.213 105.113C220.547 105.029 219.088 105.029 217.838 105.113C216.588 105.113 215.797 104.571 215.463 103.488C215.297 103.071 215.213 102.613 215.213 102.113C215.213 101.613 215.172 101.029 215.088 100.363C214.922 99.1128 214.713 97.6961 214.463 96.1128C214.297 94.5295 214.297 93.0295 214.463 91.6128C214.547 90.6961 214.547 89.7378 214.463 88.7378C214.38 87.7378 214.297 86.7378 214.213 85.7378C214.213 82.9045 213.88 80.1545 213.213 77.4878C211.047 76.5711 208.797 76.1961 206.463 76.3628C205.797 76.3628 205.213 76.4045 204.713 76.4878C204.213 76.5711 203.713 76.5295 203.213 76.3628C202.713 76.2795 202.213 76.1961 201.713 76.1128C201.297 76.0295 200.797 75.9878 200.213 75.9878C199.547 75.9878 198.838 76.0711 198.088 76.2378C197.422 76.4045 196.755 76.4045 196.088 76.2378C195.672 76.1545 195.297 76.0295 194.963 75.8628C194.63 75.6128 194.338 75.4045 194.088 75.2378C193.588 74.6545 193.255 74.0711 193.088 73.4878C192.922 72.8211 192.297 72.5711 191.213 72.7378C190.797 73.4045 190.463 74.0295 190.213 74.6128C189.963 75.1961 189.38 75.6545 188.463 75.9878C188.047 76.0711 187.672 76.1128 187.338 76.1128C187.005 76.1128 186.63 76.1961 186.213 76.3628C185.713 76.5295 185.172 76.7378 184.588 76.9878C184.088 77.2378 183.547 77.4461 182.963 77.6128C182.88 78.2795 182.88 78.9045 182.963 79.4878C183.13 80.0711 183.088 80.6545 182.838 81.2378C182.672 81.6545 182.463 82.0295 182.213 82.3628C181.963 82.6961 181.838 83.0711 181.838 83.4878C181.838 83.7378 181.963 84.0711 182.213 84.4878C182.463 84.8211 182.672 85.1545 182.838 85.4878C182.922 86.0711 182.88 86.7378 182.713 87.4878C182.63 88.2378 182.505 88.9461 182.338 89.6128C182.255 89.8628 182.213 90.1128 182.213 90.3628C182.213 90.6128 182.13 90.8628 181.963 91.1128C181.547 92.7795 181.547 93.9878 181.963 94.7378C182.13 95.1545 182.297 95.4878 182.463 95.7378C182.713 95.9045 182.922 96.1545 183.088 96.4878C183.255 97.1545 183.297 97.8211 183.213 98.4878C183.213 99.0711 183.255 99.6961 183.338 100.363C183.338 100.779 183.422 101.279 183.588 101.863C183.755 102.446 183.755 102.946 183.588 103.363C183.422 103.696 183.172 103.988 182.838 104.238C182.505 104.404 182.255 104.696 182.088 105.113C181.505 105.279 181.047 105.529 180.713 105.863C180.463 106.196 180.13 106.488 179.713 106.738C178.797 106.904 177.838 107.071 176.838 107.238C175.838 107.404 174.88 107.321 173.963 106.988C172.88 107.154 171.672 107.279 170.338 107.363C169.088 107.363 167.922 107.446 166.838 107.613C166.172 107.113 165.505 106.571 164.838 105.988C164.172 105.404 163.297 105.446 162.213 106.113C161.797 106.279 161.463 106.529 161.213 106.863C161.047 107.196 160.755 107.446 160.338 107.613C159.422 107.529 158.755 107.571 158.338 107.738C158.005 107.821 157.713 107.863 157.463 107.863C157.213 107.863 156.963 107.821 156.713 107.738C156.463 107.654 156.213 107.613 155.963 107.613C155.463 107.529 154.963 107.571 154.463 107.738C153.963 107.904 153.38 107.946 152.713 107.863C151.63 107.779 150.755 107.863 150.088 108.113C149.422 108.279 148.755 108.279 148.088 108.113C147.505 107.696 146.838 107.446 146.088 107.363C145.422 107.196 144.838 106.904 144.338 106.488C143.755 105.988 143.088 105.154 142.338 103.988C141.838 101.988 141.505 99.9461 141.338 97.8628C141.255 95.6961 141.213 93.5711 141.213 91.4878C141.213 89.4045 141.172 87.3628 141.088 85.3628C141.005 83.3628 140.797 81.4461 140.463 79.6128C139.547 79.6128 138.713 79.6128 137.963 79.6128C137.213 79.5295 136.297 79.5295 135.213 79.6128C134.463 79.6128 133.672 79.6128 132.838 79.6128C132.088 79.5295 131.588 79.1128 131.338 78.3628C131.172 78.1961 131.088 77.9045 131.088 77.4878C131.088 77.0711 131.047 76.6545 130.963 76.2378C130.88 75.5711 130.838 75.0295 130.838 74.6128C130.838 74.1961 130.797 73.6128 130.713 72.8628C130.63 71.6128 130.838 70.7378 131.338 70.2378C131.838 69.6545 132.047 69.0295 131.963 68.3628C131.963 68.1128 131.797 67.8628 131.463 67.6128C131.213 67.3628 131.005 67.1128 130.838 66.8628C130.422 65.7795 130.297 64.6545 130.463 63.4878C130.63 62.3211 131.172 61.4878 132.088 60.9878C132.922 60.5711 133.838 60.2378 134.838 59.9878C135.838 59.7378 136.88 59.5711 137.963 59.4878C138.38 59.4878 138.755 59.4878 139.088 59.4878C139.422 59.4878 139.755 59.3628 140.088 59.1128C140.005 58.1128 140.005 57.1961 140.088 56.3628C140.172 55.4461 140.213 54.5295 140.213 53.6128C140.213 52.4461 140.13 51.3628 139.963 50.3628C139.797 49.2795 139.672 48.1961 139.588 47.1128C139.588 46.8628 139.63 46.6128 139.713 46.3628C139.797 46.1128 139.838 45.8628 139.838 45.6128C139.755 45.1128 139.63 44.6545 139.463 44.2378C139.38 43.7378 139.297 43.2378 139.213 42.7378C139.297 41.4878 139.213 40.0295 138.963 38.3628C138.797 36.6961 138.797 35.2378 138.963 33.9878C139.047 33.2378 139.13 32.7378 139.213 32.4878C139.38 32.1545 139.713 31.8211 140.213 31.4878C140.463 30.1545 140.297 29.1961 139.713 28.6128C139.213 27.9461 138.755 27.2378 138.338 26.4878C138.338 24.9045 138.297 23.4461 138.213 22.1128C138.13 20.6961 138.463 19.5295 139.213 18.6128C139.38 18.4461 139.588 18.3211 139.838 18.2378C140.088 18.0711 140.297 17.8628 140.463 17.6128C141.63 16.9461 142.838 16.5295 144.088 16.3628C145.338 16.1961 146.88 16.0295 148.713 15.8628C149.13 15.8628 149.505 15.8211 149.838 15.7378C150.172 15.6545 150.547 15.6128 150.963 15.6128C151.463 15.5295 151.963 15.5295 152.463 15.6128C153.047 15.6961 153.588 15.7378 154.088 15.7378C154.505 15.7378 154.88 15.7378 155.213 15.7378C155.547 15.6545 155.922 15.6128 156.338 15.6128C157.255 15.5295 158.255 15.4878 159.338 15.4878C160.422 15.4878 161.547 15.4461 162.713 15.3628C162.963 15.3628 163.213 15.3211 163.463 15.2378C163.713 15.0711 163.922 14.9878 164.088 14.9878C164.672 15.0711 165.047 15.0711 165.213 14.9878C165.38 14.9045 165.547 14.8628 165.713 14.8628C166.13 14.7795 166.63 14.7795 167.213 14.8628C167.797 14.8628 168.38 14.7795 168.963 14.6128C169.963 15.0295 170.63 15.4878 170.963 15.9878C171.297 16.4045 171.755 16.7378 172.338 16.9878C173.672 16.9878 174.922 16.6128 176.088 15.8628C176.422 16.0295 176.713 16.0711 176.963 15.9878C177.297 15.8211 177.63 15.7378 177.963 15.7378C178.463 15.8211 178.963 16.0711 179.463 16.4878C179.963 16.9045 180.255 17.2795 180.338 17.6128C180.255 18.8628 180.213 19.8628 180.213 20.6128C180.213 21.3628 180.255 22.0711 180.338 22.7378C180.422 23.5711 180.547 24.4878 180.713 25.4878C180.88 26.4878 180.963 27.4461 180.963 28.3628C180.963 29.1961 180.922 30.0295 180.838 30.8628C180.755 31.6961 180.755 32.4461 180.838 33.1128C180.922 34.1128 180.922 34.7378 180.838 34.9878C180.755 35.2378 180.672 35.4461 180.588 35.6128C180.255 36.6961 180.005 37.3211 179.838 37.4878C179.755 37.6545 179.672 37.8211 179.588 37.9878C179.422 38.4045 179.463 38.9461 179.713 39.6128C179.963 40.1961 180.172 40.7378 180.338 41.2378C180.922 42.2378 181.172 42.9045 181.088 43.2378C181.088 43.4878 181.088 43.7795 181.088 44.1128C181.088 44.7795 181.172 45.4878 181.338 46.2378C181.505 46.9878 181.588 47.6961 181.588 48.3628C181.672 49.8628 181.713 51.4461 181.713 53.1128C181.797 54.6961 181.922 56.1961 182.088 57.6128C183.422 58.1961 185.005 58.3628 186.838 58.1128C188.672 57.8628 190.463 57.6545 192.213 57.4878C192.63 57.4878 193.047 57.5295 193.463 57.6128C193.963 57.6128 194.422 57.6128 194.838 57.6128C195.338 57.5295 195.797 57.4878 196.213 57.4878C196.713 57.4045 197.213 57.3211 197.713 57.2378C198.88 57.1545 200.047 57.0711 201.213 56.9878C202.463 56.9045 203.672 56.8628 204.838 56.8628C205.755 56.8628 206.505 56.8628 207.088 56.8628C207.755 56.7795 208.547 56.6961 209.463 56.6128C210.13 56.5295 210.88 56.4878 211.713 56.4878C212.547 56.4045 213.088 56.0711 213.338 55.4878C213.172 54.7378 213.005 53.9461 212.838 53.1128C212.755 52.2795 212.797 51.5295 212.963 50.8628C213.463 49.3628 213.713 48.2795 213.713 47.6128C213.797 46.9461 213.922 46.3211 214.088 45.7378C214.255 45.3211 214.38 44.9045 214.463 44.4878C214.63 44.0711 214.672 43.5295 214.588 42.8628C214.422 41.9461 214.13 41.1545 213.713 40.4878C213.38 39.7378 213.005 38.9461 212.588 38.1128C212.505 36.1961 212.505 34.2378 212.588 32.2378C212.755 30.1545 212.713 28.0295 212.463 25.8628C212.297 25.1961 212.172 24.5711 212.088 23.9878C212.005 23.3211 211.922 22.6545 211.838 21.9878C211.755 21.5711 211.63 21.1961 211.463 20.8628C211.297 20.5295 211.255 20.1961 211.338 19.8628C211.338 19.6128 211.463 19.3211 211.713 18.9878C212.047 18.6545 212.297 18.3211 212.463 17.9878C212.63 17.7378 212.838 17.4461 213.088 17.1128C213.338 16.7795 213.588 16.5295 213.838 16.3628C214.172 16.1961 214.547 16.1128 214.963 16.1128C215.463 16.0295 215.922 15.9045 216.338 15.7378C216.838 15.5711 217.297 15.3628 217.713 15.1128C218.13 14.7795 218.422 14.6128 218.588 14.6128C218.838 14.5295 219.088 14.5295 219.338 14.6128C219.672 14.6961 219.963 14.7378 220.213 14.7378C220.713 14.6545 221.213 14.5295 221.713 14.3628C222.297 14.1961 222.838 14.1128 223.338 14.1128C223.672 14.1128 223.963 14.1545 224.213 14.2378C224.547 14.3211 224.838 14.3628 225.088 14.3628C225.505 14.3628 225.922 14.3211 226.338 14.2378C226.755 14.0711 227.213 13.9878 227.713 13.9878C228.213 13.9045 228.713 13.9461 229.213 14.1128C229.713 14.1961 230.172 14.1961 230.588 14.1128C230.922 14.0295 231.213 13.9461 231.463 13.8628C231.713 13.7795 232.005 13.7378 232.338 13.7378C233.088 13.6545 233.797 13.6545 234.463 13.7378C235.213 13.8211 235.922 13.8628 236.588 13.8628C236.755 13.6128 237.088 13.5295 237.588 13.6128C238.172 13.6961 238.547 13.6545 238.713 13.4878C239.13 13.6545 239.505 13.6961 239.838 13.6128C240.172 13.4461 240.547 13.4045 240.963 13.4878C241.38 13.4878 241.755 13.6961 242.088 14.1128C242.505 14.5295 242.88 14.8628 243.213 15.1128C243.63 15.5295 244.005 15.9045 244.338 16.2378C244.755 16.4878 245.172 16.6961 245.588 16.8628C246.505 16.8628 247.547 16.9878 248.713 17.2378C249.13 17.4045 249.63 17.5295 250.213 17.6128C250.797 17.6961 251.213 17.8628 251.463 18.1128C251.797 18.5295 251.963 19.1545 251.963 19.9878C251.963 20.8211 252.047 21.6128 252.213 22.3628C252.547 24.7795 252.672 26.9045 252.588 28.7378C252.505 30.4878 252.547 32.3628 252.713 34.3628C252.88 35.5295 252.963 36.6961 252.963 37.8628C253.047 39.0295 253.13 40.1961 253.213 41.3628C253.297 42.2795 253.297 43.1961 253.213 44.1128C253.13 45.0295 253.088 45.9461 253.088 46.8628C253.172 47.7795 253.255 48.8211 253.338 49.9878C253.505 51.1545 253.588 52.1961 253.588 53.1128C253.588 54.0295 253.547 55.0295 253.463 56.1128C253.463 57.1128 253.547 58.1961 253.713 59.3628C252.213 61.1128 251.755 63.1128 252.338 65.3628C252.505 65.7795 252.672 66.1128 252.838 66.3628C253.088 66.6128 253.297 66.9045 253.463 67.2378C253.88 67.9045 254.13 68.5295 254.213 69.1128C254.297 69.6961 254.338 70.4461 254.338 71.3628C254.422 72.2795 254.463 73.2795 254.463 74.3628C254.547 75.3628 254.505 76.3211 254.338 77.2378C254.672 78.8211 254.838 80.4045 254.838 81.9878C254.922 83.4878 255.005 85.1545 255.088 86.9878C255.088 87.6545 255.047 88.3628 254.963 89.1128C254.963 89.7795 255.005 90.4461 255.088 91.1128C255.172 91.3628 255.172 91.6128 255.088 91.8628C255.088 92.1128 255.13 92.4045 255.213 92.7378C255.213 92.9878 255.255 93.2795 255.338 93.6128C255.422 93.8628 255.463 94.1128 255.463 94.3628C255.463 94.6128 255.422 94.9045 255.338 95.2378C255.255 95.4878 255.213 95.7378 255.213 95.9878C255.88 98.1545 255.713 99.8211 254.713 100.988C253.713 102.071 252.838 102.988 252.088 103.738ZM141.713 73.8628C141.713 73.6961 141.588 73.4045 141.338 72.9878C141.172 72.4878 141.005 72.1545 140.838 71.9878C140.672 71.7378 140.505 71.5711 140.338 71.4878C140.172 71.3211 140.005 71.1545 139.838 70.9878C139.255 70.9878 138.797 70.7795 138.463 70.3628C138.13 69.9461 137.63 69.8211 136.963 69.9878C136.297 70.2378 135.963 70.9045 135.963 71.9878C135.963 73.0711 136.13 73.9045 136.463 74.4878C136.88 74.5711 137.172 74.7378 137.338 74.9878C137.588 75.1545 137.88 75.2795 138.213 75.3628C138.88 75.4461 139.588 75.3211 140.338 74.9878C141.172 74.6545 141.63 74.2795 141.713 73.8628ZM152.963 24.6128C153.463 24.2795 153.88 23.7378 154.213 22.9878C154.547 22.1545 154.505 21.4045 154.088 20.7378C153.338 20.8211 152.505 20.8211 151.588 20.7378C150.755 20.6545 149.88 20.6128 148.963 20.6128C148.13 20.5295 147.297 20.5711 146.463 20.7378C145.63 20.8211 144.922 21.1128 144.338 21.6128C143.922 22.1128 143.797 22.6961 143.963 23.3628C144.213 23.9461 144.422 24.4878 144.588 24.9878C144.755 25.5711 144.838 26.1128 144.838 26.6128C144.922 27.0295 145.13 27.3211 145.463 27.4878C146.297 27.4878 147.088 27.1961 147.838 26.6128C148.088 26.3628 148.255 26.0295 148.338 25.6128C148.505 25.1961 148.672 24.9045 148.838 24.7378C149.338 24.3211 149.922 24.2378 150.588 24.4878C151.338 24.7378 152.13 24.7795 152.963 24.6128ZM164.713 100.988C165.13 100.321 165.172 99.7795 164.838 99.3628C164.505 98.8628 164.213 98.4878 163.963 98.2378C163.463 98.1545 162.963 98.1961 162.463 98.3628C161.963 98.5295 161.63 98.7795 161.463 99.1128C160.963 100.029 161.172 100.613 162.088 100.863C163.088 101.029 163.963 101.071 164.713 100.988ZM163.088 22.3628C163.088 21.6961 162.755 21.1961 162.088 20.8628C161.422 20.5295 160.755 20.3628 160.088 20.3628C159.422 20.6961 158.797 21.0711 158.213 21.4878C157.63 21.8211 157.38 22.2795 157.463 22.8628C157.463 23.1961 157.797 23.6128 158.463 24.1128C159.213 24.6128 159.713 24.8628 159.963 24.8628C160.63 24.9461 161.297 24.6961 161.963 24.1128C162.63 23.5295 163.005 22.9461 163.088 22.3628ZM176.588 98.8628C176.755 98.6128 176.797 98.3628 176.713 98.1128C176.63 97.8628 176.588 97.6128 176.588 97.3628C176.588 96.8628 176.547 96.2795 176.463 95.6128C176.463 94.9461 176.38 94.3211 176.213 93.7378C176.13 93.0711 175.922 92.5711 175.588 92.2378C175.255 91.8211 174.797 91.6961 174.213 91.8628C173.713 93.3628 173.38 94.6128 173.213 95.6128C173.047 96.5295 172.63 97.3211 171.963 97.9878C171.297 98.0711 170.755 98.5711 170.338 99.4878C170.005 100.321 170.172 100.988 170.838 101.488C171.255 101.821 171.963 101.946 172.963 101.863C173.963 101.779 174.672 101.613 175.088 101.363C175.255 101.279 175.38 101.113 175.463 100.863C175.547 100.529 175.672 100.279 175.838 100.113C176.005 99.9461 176.172 99.7378 176.338 99.4878C176.505 99.2378 176.588 99.0295 176.588 98.8628ZM221.213 62.4878C221.463 62.2378 221.755 61.8211 222.088 61.2378C222.422 60.6545 222.672 60.0295 222.838 59.3628C223.088 58.6128 223.213 57.9045 223.213 57.2378C223.213 56.5711 223.047 55.9878 222.713 55.4878C222.297 55.0711 221.797 54.8628 221.213 54.8628C220.63 54.7795 220.172 54.9461 219.838 55.3628C219.505 56.1961 219.297 57.0295 219.213 57.8628C219.13 58.6128 218.88 59.2795 218.463 59.8628C217.963 60.5295 217.255 60.9461 216.338 61.1128C215.422 61.2795 214.505 61.5711 213.588 61.9878C213.422 62.5711 213.505 63.0711 213.838 63.4878C214.255 63.9045 214.672 64.1128 215.088 64.1128C216.672 63.7795 217.88 63.5295 218.713 63.3628C219.63 63.1128 220.463 62.8211 221.213 62.4878ZM224.588 22.6128C225.338 22.4461 225.838 22.1128 226.088 21.6128C226.005 21.1961 225.922 20.7378 225.838 20.2378C225.755 19.7378 225.505 19.4045 225.088 19.2378C223.922 19.4045 223.005 19.4878 222.338 19.4878C221.755 19.4045 221.13 19.4045 220.463 19.4878C219.38 19.5711 218.505 20.0711 217.838 20.9878C217.172 21.8211 217.005 22.8211 217.338 23.9878C217.505 24.4878 217.713 25.1545 217.963 25.9878C218.297 26.8211 218.755 27.2795 219.338 27.3628C219.672 27.3628 219.963 27.2378 220.213 26.9878C220.463 26.7378 220.755 26.5295 221.088 26.3628C221.088 24.7795 221.38 23.7795 221.963 23.3628C222.297 23.1961 222.588 23.1545 222.838 23.2378C223.088 23.2378 223.422 23.1961 223.838 23.1128L224.588 22.6128ZM233.838 21.4878C233.838 20.9045 233.755 20.4045 233.588 19.9878C233.505 19.5711 233.213 19.2795 232.713 19.1128C231.547 19.4461 230.755 19.8628 230.338 20.3628C229.922 20.8628 229.672 21.5295 229.588 22.3628C230.255 22.6128 230.963 22.6545 231.713 22.4878C232.547 22.2378 233.255 21.9045 233.838 21.4878ZM249.713 95.7378C249.88 94.9878 249.88 94.3211 249.713 93.7378C249.63 93.0711 249.547 92.4461 249.463 91.8628C248.547 91.6128 247.797 91.8211 247.213 92.4878C246.63 93.0711 246.422 93.7378 246.588 94.4878C246.922 95.2378 247.088 95.6961 247.088 95.8628C247.172 96.0295 247.422 96.1545 247.838 96.2378C248.172 96.0711 248.463 95.9878 248.713 95.9878C248.963 95.9878 249.297 95.9045 249.713 95.7378ZM247.213 14.9878C246.963 14.8211 246.713 14.6545 246.463 14.4878C246.297 14.2378 246.088 14.0295 245.838 13.8628C246.255 12.6961 246.797 12.1961 247.463 12.3628C248.213 12.4461 248.963 12.5295 249.713 12.6128C250.547 12.6128 251.047 12.6545 251.213 12.7378C251.38 12.8211 251.547 12.9045 251.713 12.9878C252.38 13.1545 253.13 13.4045 253.963 13.7378C254.797 13.9878 255.297 14.4461 255.463 15.1128C255.63 16.0295 255.505 16.7378 255.088 17.2378C254.755 17.7378 254.672 18.4878 254.838 19.4878C253.838 19.4878 253.338 19.1545 253.338 18.4878C253.422 17.7378 253.422 16.9878 253.338 16.2378C252.922 15.9878 252.547 15.9461 252.213 16.1128C251.88 16.2795 251.505 16.3211 251.088 16.2378C250.088 15.8211 249.297 15.5711 248.713 15.4878C248.13 15.4045 247.63 15.2378 247.213 14.9878ZM201.588 54.4878C201.255 52.9878 201.338 52.1545 201.838 51.9878C202.422 51.8211 203.13 51.5711 203.963 51.2378C204.297 51.0711 204.672 50.9461 205.088 50.8628C205.505 50.7795 205.922 50.6545 206.338 50.4878C206.588 50.3211 206.922 50.0295 207.338 49.6128C207.755 49.1961 208.047 48.8211 208.213 48.4878C208.547 47.5711 208.63 46.6128 208.463 45.6128C208.38 44.5295 208.505 43.4878 208.838 42.4878C208.338 42.4878 207.963 42.3628 207.713 42.1128C207.547 41.8628 207.463 41.5711 207.463 41.2378C207.547 40.8211 207.672 40.4461 207.838 40.1128C208.088 39.7795 208.38 39.5711 208.713 39.4878C209.047 39.6545 209.338 39.8628 209.588 40.1128C209.838 40.2795 210.088 40.4461 210.338 40.6128C210.338 40.8628 210.297 41.1128 210.213 41.3628C210.13 41.6128 210.13 41.8628 210.213 42.1128C210.297 42.5295 210.463 42.9045 210.713 43.2378C210.963 43.5711 211.13 43.9461 211.213 44.3628C211.297 44.9461 211.255 45.5711 211.088 46.2378C211.005 46.9045 210.922 47.4878 210.838 47.9878C210.672 48.7378 210.547 49.4878 210.463 50.2378C210.38 50.9045 210.13 51.5711 209.713 52.2378C208.713 52.9045 207.463 53.4045 205.963 53.7378C204.547 54.0711 203.088 54.3211 201.588 54.4878ZM259.838 71.3628C260.255 71.7795 260.547 72.5711 260.713 73.7378C260.963 74.9045 261.047 75.9461 260.963 76.8628C260.88 77.6128 260.713 78.3211 260.463 78.9878C260.213 79.5711 259.922 80.0711 259.588 80.4878C259.255 80.3211 258.963 80.1961 258.713 80.1128C258.463 80.0295 258.255 79.9045 258.088 79.7378C257.922 79.3211 257.922 78.9461 258.088 78.6128C258.255 78.1961 258.338 77.7795 258.338 77.3628C257.922 76.2795 257.755 75.4878 257.838 74.9878C258.005 74.4878 258.088 73.9878 258.088 73.4878C258.005 73.0711 257.963 72.6545 257.963 72.2378C257.963 71.7378 258.13 71.4045 258.463 71.2378C258.63 71.1545 258.838 71.1545 259.088 71.2378C259.422 71.2378 259.672 71.2795 259.838 71.3628ZM136.338 84.2378C136.505 84.9045 136.297 85.4461 135.713 85.8628C135.213 86.1961 134.547 86.4461 133.713 86.6128C132.963 86.6961 132.172 86.6961 131.338 86.6128C130.505 86.5295 129.88 86.3628 129.463 86.1128C128.713 85.8628 128.213 85.6961 127.963 85.6128C127.963 84.6128 127.713 83.4045 127.213 81.9878C126.713 80.5711 126.547 79.3628 126.713 78.3628C126.797 77.9461 127.005 77.6128 127.338 77.3628C127.755 77.1128 128.172 77.1128 128.588 77.3628C128.755 77.8628 128.797 78.4045 128.713 78.9878C128.713 79.4878 128.797 79.9461 128.963 80.3628C129.13 81.0295 129.588 81.6545 130.338 82.2378C131.088 82.7378 131.797 83.1961 132.463 83.6128C132.797 83.6128 133.172 83.6128 133.588 83.6128C134.005 83.5295 134.38 83.4878 134.713 83.4878C135.13 83.4878 135.463 83.5295 135.713 83.6128C136.047 83.6961 136.255 83.9045 136.338 84.2378ZM204.213 79.4878C204.38 79.6545 204.505 79.9461 204.588 80.3628C204.755 80.6961 204.755 80.9878 204.588 81.2378C202.755 81.7378 200.797 81.8628 198.713 81.6128C196.713 81.3628 194.63 81.1128 192.463 80.8628C191.463 81.1128 190.38 81.3211 189.213 81.4878C188.13 81.6545 187.213 81.4878 186.463 80.9878C186.297 80.3211 186.38 79.7795 186.713 79.3628C187.047 78.9461 187.547 78.6545 188.213 78.4878C188.713 78.3211 189.172 78.2378 189.588 78.2378C190.172 78.1545 190.463 78.0711 190.463 77.9878C190.547 77.9045 190.672 77.7795 190.838 77.6128C191.505 76.9461 192.297 76.6545 193.213 76.7378C193.38 76.9878 193.505 77.2795 193.588 77.6128C193.672 77.9461 193.88 78.1961 194.213 78.3628C194.963 78.1961 195.713 78.1545 196.463 78.2378C197.297 78.2378 197.963 78.4461 198.463 78.8628C199.38 78.8628 200.297 79.0295 201.213 79.3628C202.213 79.6128 203.213 79.6545 204.213 79.4878ZM258.963 84.8628C259.38 84.6961 259.838 84.6961 260.338 84.8628C260.672 85.6128 260.797 86.4878 260.713 87.4878C260.713 88.4878 260.713 89.5295 260.713 90.6128C260.713 92.0295 260.713 93.5295 260.713 95.1128C260.797 96.6961 260.797 98.2795 260.713 99.8628C260.713 100.779 260.713 101.654 260.713 102.488C260.797 103.321 260.755 104.029 260.588 104.613C260.505 104.779 260.338 104.988 260.088 105.238C259.922 105.404 259.755 105.613 259.588 105.863C259.255 106.279 259.005 106.696 258.838 107.113C258.755 107.446 258.547 107.696 258.213 107.863C257.63 108.279 256.922 108.488 256.088 108.488C255.338 108.404 254.463 108.446 253.463 108.613C252.963 108.696 252.13 108.863 250.963 109.113C249.797 109.363 248.838 109.279 248.088 108.863C247.588 107.946 247.297 107.404 247.213 107.238C247.13 107.071 247.172 106.863 247.338 106.613C248.005 106.196 248.713 106.113 249.463 106.363C250.297 106.529 251.088 106.571 251.838 106.488C252.755 106.321 253.588 106.071 254.338 105.738C255.088 105.404 255.797 105.154 256.463 104.988C257.047 104.321 257.588 103.571 258.088 102.738C258.588 101.904 258.797 100.821 258.713 99.4878C258.63 99.1545 258.547 98.8211 258.463 98.4878C258.38 98.1545 258.338 97.8211 258.338 97.4878C258.255 96.8211 258.213 96.1545 258.213 95.4878C258.297 94.8211 258.338 94.1545 258.338 93.4878C258.422 92.7378 258.505 91.9461 258.588 91.1128C258.672 90.2795 258.755 89.4461 258.838 88.6128C258.838 87.9461 258.797 87.3211 258.713 86.7378C258.713 86.0711 258.797 85.4461 258.963 84.8628ZM152.963 109.738C153.38 109.738 154.088 109.654 155.088 109.488C156.088 109.321 156.63 109.446 156.713 109.863C156.88 110.279 156.713 110.696 156.213 111.113C155.797 111.613 155.422 111.904 155.088 111.988C154.338 112.154 153.63 112.154 152.963 111.988C152.38 111.904 151.672 111.821 150.838 111.738C150.505 111.738 150.172 111.779 149.838 111.863C149.505 111.946 149.172 111.988 148.838 111.988C147.088 111.904 145.672 111.946 144.588 112.113C143.505 112.363 142.422 112.279 141.338 111.863C140.672 112.029 140.172 111.904 139.838 111.488C139.505 111.154 139.088 110.988 138.588 110.988C138.338 110.404 138.088 109.696 137.838 108.863C137.588 108.113 137.463 107.279 137.463 106.363C137.463 105.196 137.338 104.071 137.088 102.988C136.922 101.904 136.713 100.863 136.463 99.8628C136.63 99.4461 136.88 98.9878 137.213 98.4878C137.547 97.9878 138.005 97.9461 138.588 98.3628C138.922 99.1128 139.005 99.9461 138.838 100.863C138.672 101.696 138.713 102.488 138.963 103.238C139.047 103.654 139.213 104.029 139.463 104.363C139.797 104.696 139.922 105.071 139.838 105.488C140.255 106.154 140.672 106.779 141.088 107.363C141.588 107.946 142.172 108.446 142.838 108.863C143.172 108.779 143.422 108.821 143.588 108.988C143.838 109.154 144.088 109.279 144.338 109.363C145.422 109.446 146.088 109.529 146.338 109.613C146.588 109.779 146.838 109.904 147.088 109.988C147.755 110.071 148.463 109.988 149.213 109.738C149.963 109.571 150.672 109.529 151.338 109.613C151.588 109.613 151.838 109.613 152.088 109.613C152.338 109.696 152.63 109.738 152.963 109.738ZM271.588 21.6128C270.838 21.7795 270.13 21.9878 269.463 22.2378C268.797 22.4878 268.463 23.0295 268.463 23.8628C268.547 24.4461 268.755 24.9878 269.088 25.4878C269.422 25.9045 269.672 26.3628 269.838 26.8628C269.922 27.0295 270.005 27.4045 270.088 27.9878C270.255 28.4878 270.338 28.8211 270.338 28.9878C270.588 30.5711 270.547 31.9045 270.213 32.9878C269.88 33.1545 269.547 33.1128 269.213 32.8628C268.963 32.6128 268.713 32.3211 268.463 31.9878C267.963 31.3211 267.547 30.6545 267.213 29.9878C266.88 29.2378 266.672 28.3628 266.588 27.3628C266.505 26.4461 266.38 25.6128 266.213 24.8628C265.963 24.0295 265.963 23.1545 266.213 22.2378C266.297 21.6545 266.505 21.2378 266.838 20.9878C267.172 20.7378 267.505 20.4045 267.838 19.9878C269.088 19.8211 270.422 19.6128 271.838 19.3628C273.338 19.0295 274.755 19.0711 276.088 19.4878C276.672 19.3211 277.255 19.1961 277.838 19.1128C278.505 19.0295 279.13 19.0295 279.713 19.1128C280.13 19.5295 280.172 19.9461 279.838 20.3628C279.505 20.7795 279.13 21.0295 278.713 21.1128C278.297 21.1961 277.88 21.1961 277.463 21.1128C277.047 20.9461 276.63 20.8628 276.213 20.8628C275.463 20.8628 274.672 20.9461 273.838 21.1128C273.088 21.2795 272.338 21.4461 271.588 21.6128ZM352.588 17.7378C352.172 17.8211 351.713 17.9045 351.213 17.9878C350.797 18.0711 350.38 17.9878 349.963 17.7378C349.797 17.2378 349.838 16.8211 350.088 16.4878C350.422 16.1545 350.838 15.9461 351.338 15.8628C351.922 15.6961 352.547 15.6128 353.213 15.6128C353.88 15.6128 354.463 15.6128 354.963 15.6128C355.463 15.6961 356.005 15.7795 356.588 15.8628C357.172 15.9461 357.672 15.9878 358.088 15.9878C359.172 15.7378 359.838 15.6545 360.088 15.7378C360.338 15.7378 360.547 15.6961 360.713 15.6128C360.88 15.6128 361.172 15.5711 361.588 15.4878C362.088 15.3211 362.547 15.1961 362.963 15.1128C363.38 15.0295 363.755 15.0295 364.088 15.1128C364.505 15.1128 364.755 15.2378 364.838 15.4878C365.005 16.1545 364.713 16.6545 363.963 16.9878C363.297 17.3211 362.755 17.6128 362.338 17.8628C361.838 18.0295 361.338 18.2378 360.838 18.4878C360.422 18.6545 359.797 18.7378 358.963 18.7378C358.547 18.6545 358.213 18.5295 357.963 18.3628C357.797 18.1961 357.505 18.0295 357.088 17.8628C356.672 17.6961 356.338 17.6545 356.088 17.7378C355.838 17.7378 355.547 17.7378 355.213 17.7378C354.797 17.7378 354.338 17.7378 353.838 17.7378C353.422 17.6545 353.005 17.6545 352.588 17.7378ZM287.338 22.2378C286.755 22.3211 286.213 22.2378 285.713 21.9878C285.297 21.6545 284.922 21.3211 284.588 20.9878C285.005 19.6545 285.797 19.0295 286.963 19.1128C288.13 19.1961 289.047 19.2378 289.713 19.2378C290.047 19.8211 290.005 20.3211 289.588 20.7378C289.255 21.0711 288.88 21.3628 288.463 21.6128L287.338 22.2378ZM439.338 15.7378C439.672 16.1545 439.838 16.6128 439.838 17.1128C439.838 17.6128 439.922 18.1545 440.088 18.7378C439.672 20.3211 439.297 21.8211 438.963 23.2378C438.713 24.5711 438.338 25.9878 437.838 27.4878C437.505 28.5711 437.213 29.6961 436.963 30.8628C436.797 31.9461 436.505 33.0711 436.088 34.2378C436.005 34.6545 435.88 35.0295 435.713 35.3628C435.63 35.6128 435.547 35.9461 435.463 36.3628C435.297 36.7795 435.213 37.1961 435.213 37.6128C435.297 37.9461 435.172 38.1961 434.838 38.3628C434.255 38.6961 433.755 39.1128 433.338 39.6128C433.005 40.0295 432.588 40.4045 432.088 40.7378C432.005 41.0711 431.838 41.3628 431.588 41.6128C431.422 41.8628 431.255 42.1961 431.088 42.6128C430.755 43.4461 430.588 44.1961 430.588 44.8628C430.505 45.6128 430.588 46.4045 430.838 47.2378C431.172 48.0711 431.38 48.8628 431.463 49.6128C431.463 50.4461 431.338 51.1961 431.088 51.8628C430.922 52.5295 430.713 53.2795 430.463 54.1128C430.463 54.8628 430.297 55.6128 429.963 56.3628C429.713 57.1128 429.463 57.9045 429.213 58.7378C429.047 59.5711 428.88 60.4045 428.713 61.2378C428.547 61.9878 428.255 62.7378 427.838 63.4878C427.588 64.8211 427.338 66.1128 427.088 67.3628C426.922 68.6128 426.588 69.7378 426.088 70.7378C425.672 71.3211 425.047 71.8628 424.213 72.3628C423.463 72.7795 423.005 73.2795 422.838 73.8628C422.338 74.8628 422.255 75.8628 422.588 76.8628C422.922 77.7795 423.005 78.7795 422.838 79.8628C422.672 80.2795 422.547 80.6545 422.463 80.9878C422.38 81.3211 422.255 81.6961 422.088 82.1128C421.922 82.6961 421.755 83.2378 421.588 83.7378C421.422 84.2378 421.255 84.7795 421.088 85.3628C420.672 86.5295 420.255 87.8628 419.838 89.3628C419.505 90.7795 419.172 92.1128 418.838 93.3628C418.755 93.7795 418.672 94.1961 418.588 94.6128C418.588 94.9461 418.505 95.3211 418.338 95.7378C418.255 95.9878 418.13 96.2378 417.963 96.4878C417.88 96.6545 417.755 96.8628 417.588 97.1128C417.338 97.9461 417.088 98.7795 416.838 99.6128C416.672 100.363 416.422 101.196 416.088 102.113C416.005 103.279 415.672 104.363 415.088 105.363C414.588 106.279 413.963 107.071 413.213 107.738C412.38 108.488 411.297 108.863 409.963 108.863C408.63 108.863 407.255 108.904 405.838 108.988C405.422 109.071 405.005 109.113 404.588 109.113C404.172 109.196 403.755 109.238 403.338 109.238C402.838 109.238 402.338 109.238 401.838 109.238C401.338 109.321 400.88 109.321 400.463 109.238C399.88 109.238 399.297 109.154 398.713 108.988C398.13 108.904 397.505 108.946 396.838 109.113C395.672 109.363 394.88 109.488 394.463 109.488C394.13 109.488 393.755 109.488 393.338 109.488C392.338 109.654 391.255 109.821 390.088 109.988C388.922 110.238 387.797 110.279 386.713 110.113C386.297 109.946 385.88 109.779 385.463 109.613C385.047 109.529 384.588 109.404 384.088 109.238C383.922 108.821 383.713 108.404 383.463 107.988C383.297 107.488 383.088 107.029 382.838 106.613C382.422 105.696 382.005 104.821 381.588 103.988C381.255 103.071 381.005 102.029 380.838 100.863C380.672 100.363 380.588 99.8628 380.588 99.3628C380.588 98.8628 380.505 98.4045 380.338 97.9878C380.088 96.9878 379.505 96.1128 378.588 95.3628C377.755 94.6128 377.13 93.7795 376.713 92.8628C376.63 92.6128 376.505 92.1545 376.338 91.4878C376.005 90.4045 375.713 89.3211 375.463 88.2378C375.213 87.1545 374.922 86.0295 374.588 84.8628C374.422 84.3628 374.213 83.8628 373.963 83.3628C373.713 82.8628 373.505 82.3628 373.338 81.8628C372.755 79.6961 372.297 77.6128 371.963 75.6128C371.797 74.3628 371.713 73.1128 371.713 71.8628C371.797 70.6128 371.63 69.4878 371.213 68.4878C370.713 66.9878 369.88 65.7378 368.713 64.7378C367.63 63.6545 366.547 62.4878 365.463 61.2378C365.13 60.5711 364.88 59.8211 364.713 58.9878C364.547 58.1545 364.338 57.3211 364.088 56.4878C363.922 56.0711 363.713 55.5295 363.463 54.8628C363.213 54.1961 363.005 53.6128 362.838 53.1128C362.672 51.8628 362.422 50.9461 362.088 50.3628C361.755 49.7795 361.505 49.1545 361.338 48.4878C361.172 47.8211 361.047 47.1961 360.963 46.6128C360.963 45.9461 360.838 45.2795 360.588 44.6128C360.255 45.0295 360.005 45.4878 359.838 45.9878C359.755 46.4878 359.63 47.0295 359.463 47.6128C358.963 49.1128 358.463 50.6545 357.963 52.2378C357.547 53.7378 357.005 55.1961 356.338 56.6128C355.838 57.6961 355.547 58.5295 355.463 59.1128C355.38 59.6128 355.255 60.0711 355.088 60.4878C354.922 61.1545 354.713 61.8211 354.463 62.4878C354.213 63.1545 354.047 63.8628 353.963 64.6128C353.38 65.6961 352.922 66.9045 352.588 68.2378C352.338 69.4878 351.755 70.5295 350.838 71.3628C350.088 72.1961 349.63 72.7795 349.463 73.1128C349.297 73.4461 349.213 73.8211 349.213 74.2378C349.38 75.2378 349.338 75.9878 349.088 76.4878C348.922 76.9878 348.755 77.4878 348.588 77.9878C348.172 79.3211 347.797 80.6961 347.463 82.1128C347.13 83.5295 346.88 85.0295 346.713 86.6128C346.297 88.6961 345.797 90.6128 345.213 92.3628C344.963 93.2795 344.672 94.1961 344.338 95.1128C344.005 95.9461 343.713 96.8211 343.463 97.7378C343.463 98.6545 343.213 99.4461 342.713 100.113C342.297 100.779 341.922 101.488 341.588 102.238C341.338 102.904 341.13 103.571 340.963 104.238C340.88 104.904 340.672 105.571 340.338 106.238C339.755 108.238 338.922 109.988 337.838 111.488C337.172 111.654 336.505 111.904 335.838 112.238C335.255 112.571 334.547 112.654 333.713 112.488C333.13 112.321 332.547 112.029 331.963 111.613C331.463 111.279 330.963 111.071 330.463 110.988C329.963 110.904 329.38 110.904 328.713 110.988C328.047 111.071 327.505 111.238 327.088 111.488C326.422 111.738 325.797 112.113 325.213 112.613C324.713 113.113 324.088 113.446 323.338 113.613C322.838 113.779 322.255 113.863 321.588 113.863C321.005 113.863 320.38 113.863 319.713 113.863C318.88 114.029 318.338 114.071 318.088 113.988C317.838 113.904 317.63 113.863 317.463 113.863C317.047 113.863 316.588 113.946 316.088 114.113C315.672 114.113 315.213 114.071 314.713 113.988C314.297 113.904 313.88 113.904 313.463 113.988C313.047 113.988 312.588 114.029 312.088 114.113C311.672 114.279 311.255 114.404 310.838 114.488C307.255 114.988 304.797 114.196 303.463 112.113C303.047 111.279 302.755 110.738 302.588 110.488C302.422 110.321 302.255 110.113 302.088 109.863C301.922 109.529 301.797 109.238 301.713 108.988C301.63 108.738 301.505 108.446 301.338 108.113C300.672 106.946 300.088 105.738 299.588 104.488C299.172 103.238 298.547 102.113 297.713 101.113C297.63 100.113 297.547 99.0711 297.463 97.9878C297.463 96.8211 297.38 95.7378 297.213 94.7378C297.047 93.7378 296.755 92.8211 296.338 91.9878C296.005 91.1545 295.463 90.5711 294.713 90.2378C294.547 89.6545 294.255 89.1545 293.838 88.7378C293.505 88.2378 293.255 87.6961 293.088 87.1128C292.672 86.0295 292.422 85.4045 292.338 85.2378C292.255 85.0711 292.172 84.8211 292.088 84.4878C291.922 84.0711 291.797 83.6545 291.713 83.2378C291.713 82.7378 291.63 82.2795 291.463 81.8628C291.297 81.4461 291.172 81.0711 291.088 80.7378C291.005 80.3211 290.88 79.9045 290.713 79.4878C289.88 77.0711 289.088 74.6128 288.338 72.1128C287.588 69.5295 286.713 67.1545 285.713 64.9878C285.547 63.9878 285.588 63.1961 285.838 62.6128C286.172 62.0295 286.505 61.4461 286.838 60.8628C286.422 60.1128 286.047 59.3628 285.713 58.6128C285.38 57.8628 284.838 57.2795 284.088 56.8628C283.755 55.6961 283.672 54.8628 283.838 54.3628C284.005 53.7795 284.047 53.2378 283.963 52.7378C283.963 51.9045 283.797 51.1128 283.463 50.3628C283.13 49.5295 282.838 48.7795 282.588 48.1128C282.422 47.9461 282.338 47.7378 282.338 47.4878C282.338 47.1545 282.297 46.9045 282.213 46.7378C282.047 46.3211 281.755 45.9461 281.338 45.6128C281.005 45.2795 280.755 44.9045 280.588 44.4878C280.255 43.5711 279.963 42.9878 279.713 42.7378C279.547 42.4878 279.38 42.2795 279.213 42.1128C278.88 41.7795 278.505 41.5295 278.088 41.3628C277.755 41.1961 277.463 40.9878 277.213 40.7378C277.047 40.5711 276.838 40.2795 276.588 39.8628C276.422 39.3628 276.255 38.9045 276.088 38.4878C275.505 36.8211 274.963 35.1961 274.463 33.6128C274.047 32.0295 273.63 30.3628 273.213 28.6128C273.047 27.9461 272.88 27.2795 272.713 26.6128C272.63 25.8628 272.797 25.2795 273.213 24.8628C273.547 24.5295 273.838 24.3628 274.088 24.3628C274.422 24.2795 274.88 24.1545 275.463 23.9878C275.963 23.8211 276.422 23.7378 276.838 23.7378C277.255 23.6545 277.797 23.6128 278.463 23.6128C278.713 23.6128 278.963 23.6128 279.213 23.6128C279.547 23.5295 279.838 23.4878 280.088 23.4878C280.338 23.4878 280.588 23.5295 280.838 23.6128C281.172 23.6961 281.463 23.6961 281.713 23.6128C282.213 23.6128 282.63 23.5711 282.963 23.4878C283.297 23.4045 283.672 23.4461 284.088 23.6128C284.505 23.7795 284.755 24.1128 284.838 24.6128C285.005 25.1128 285.38 25.4045 285.963 25.4878C286.13 25.5711 286.463 25.5711 286.963 25.4878C287.547 25.3211 287.963 25.1545 288.213 24.9878C288.63 24.7378 289.005 24.4461 289.338 24.1128C289.755 23.7795 290.297 23.5711 290.963 23.4878C291.38 23.4045 291.755 23.4045 292.088 23.4878C292.505 23.4878 292.963 23.4461 293.463 23.3628C293.797 23.2795 294.088 23.1961 294.338 23.1128C294.672 23.0295 295.005 22.9878 295.338 22.9878C297.172 22.7378 298.922 22.5711 300.588 22.4878C302.255 22.4045 303.922 22.3628 305.588 22.3628C306.005 22.3628 306.38 22.3628 306.713 22.3628C307.13 22.2795 307.547 22.2378 307.963 22.2378C308.38 22.2378 308.713 22.2795 308.963 22.3628C309.213 22.4461 309.463 22.4878 309.713 22.4878C310.463 22.4045 311.172 22.3211 311.838 22.2378C312.588 22.1545 313.338 22.0711 314.088 21.9878C314.755 22.3211 315.13 22.5711 315.213 22.7378C315.38 22.8211 315.547 22.9045 315.713 22.9878C316.213 23.4045 316.63 23.9461 316.963 24.6128C317.297 25.1961 317.672 25.8211 318.088 26.4878C318.255 27.9045 318.547 29.3211 318.963 30.7378C319.38 32.0711 319.755 33.5295 320.088 35.1128C320.255 35.9461 320.422 36.7795 320.588 37.6128C320.838 38.3628 321.088 39.0295 321.338 39.6128C321.672 40.8628 322.088 42.1128 322.588 43.3628C323.088 44.6128 323.505 45.8628 323.838 47.1128C324.005 47.6961 324.13 48.2795 324.213 48.8628C324.297 49.3628 324.338 49.8628 324.338 50.3628C324.338 51.2795 324.297 52.3628 324.213 53.6128C324.13 54.7795 324.422 55.6961 325.088 56.3628C325.338 56.6961 325.672 56.9878 326.088 57.2378C326.505 57.4045 326.797 57.6961 326.963 58.1128C327.13 58.2795 327.255 58.5295 327.338 58.8628C327.505 59.1961 327.672 59.5711 327.838 59.9878C328.088 60.6545 328.338 61.3211 328.588 61.9878C328.838 62.6545 329.088 63.4045 329.338 64.2378C329.755 65.1545 330.13 66.1128 330.463 67.1128C330.797 68.0295 331.213 68.9878 331.713 69.9878C332.13 70.7378 332.38 70.9045 332.463 70.4878C332.547 69.9878 332.672 69.4878 332.838 68.9878L333.463 66.8628C333.63 66.4461 333.797 66.0711 333.963 65.7378C334.213 65.3211 334.297 64.9045 334.213 64.4878C334.713 62.5711 335.172 61.0711 335.588 59.9878C336.088 58.8211 336.505 57.6545 336.838 56.4878L337.588 53.1128C337.838 52.1961 338.047 51.3211 338.213 50.4878C338.38 49.6545 338.547 48.7795 338.713 47.8628C338.963 46.6961 339.255 45.4878 339.588 44.2378C339.922 42.9878 340.297 41.7378 340.713 40.4878C341.297 40.0711 341.797 39.5711 342.213 38.9878C342.63 38.3211 343.047 37.6545 343.463 36.9878C343.213 35.9045 343.13 35.0711 343.213 34.4878C343.297 33.9045 343.505 33.1545 343.838 32.2378C344.005 31.8211 344.088 31.3628 344.088 30.8628C344.172 30.3628 344.297 29.9461 344.463 29.6128C344.63 29.1961 344.755 28.7795 344.838 28.3628C344.922 27.9461 345.005 27.5295 345.088 27.1128C345.255 25.9461 345.422 24.9461 345.588 24.1128C345.838 23.2795 346.297 22.5295 346.963 21.8628C347.713 21.6961 348.422 21.3628 349.088 20.8628C349.755 20.2795 350.547 19.9461 351.463 19.8628C352.547 20.0295 353.297 20.0711 353.713 19.9878C354.13 19.8211 354.588 19.7378 355.088 19.7378C355.588 20.4045 356.213 20.9461 356.963 21.3628C357.797 21.6961 358.672 21.8628 359.588 21.8628C360.088 21.7795 360.588 21.6128 361.088 21.3628C361.588 21.1128 362.172 20.9045 362.838 20.7378C363.088 20.5711 363.338 20.4878 363.588 20.4878C363.922 20.4878 364.172 20.4461 364.338 20.3628C365.255 19.9461 366.13 19.5295 366.963 19.1128C367.88 18.6961 368.838 18.4461 369.838 18.3628C370.172 18.3628 370.463 18.4045 370.713 18.4878C371.047 18.5711 371.38 18.6128 371.713 18.6128C372.547 18.6961 373.338 18.6961 374.088 18.6128C374.922 18.5295 375.755 18.4878 376.588 18.4878C377.422 18.4878 378.213 18.4461 378.963 18.3628C379.713 18.2795 380.463 18.1545 381.213 17.9878C382.88 17.9878 384.088 18.0295 384.838 18.1128C385.672 18.1128 386.338 18.4045 386.838 18.9878C387.838 19.1545 388.588 19.5711 389.088 20.2378C389.588 20.8211 390.047 21.4461 390.463 22.1128C390.63 22.5295 390.713 22.9878 390.713 23.4878C390.797 23.9045 390.922 24.3211 391.088 24.7378C391.255 24.9878 391.38 25.2378 391.463 25.4878C391.63 25.6545 391.755 25.9461 391.838 26.3628C392.005 26.7795 392.088 27.2378 392.088 27.7378C392.088 28.1545 392.172 28.5711 392.338 28.9878C392.422 29.2378 392.63 29.8211 392.963 30.7378C393.297 31.5711 393.422 32.1961 393.338 32.6128C392.838 33.5295 392.588 34.1128 392.588 34.3628C392.672 34.5295 392.713 34.6961 392.713 34.8628C392.63 35.2795 392.588 35.6128 392.588 35.8628C392.588 36.0295 392.713 36.4045 392.963 36.9878C393.297 37.4045 393.463 37.7378 393.463 37.9878C393.547 38.1545 393.672 38.3211 393.838 38.4878C394.255 38.9045 394.672 39.2378 395.088 39.4878C395.505 39.7378 395.838 40.0711 396.088 40.4878C396.255 40.8211 396.338 41.1545 396.338 41.4878C396.422 41.8211 396.547 42.1545 396.713 42.4878C396.88 42.9878 397.088 43.4878 397.338 43.9878C397.588 44.4045 397.713 44.9461 397.713 45.6128C397.797 45.9461 397.922 46.2378 398.088 46.4878C398.338 46.6545 398.38 46.9461 398.213 47.3628C399.047 48.7795 399.672 50.2795 400.088 51.8628C400.255 52.5295 400.422 53.1961 400.588 53.8628C400.755 54.4461 400.922 55.0295 401.088 55.6128C401.505 56.8628 401.963 58.0295 402.463 59.1128C402.963 60.1961 403.297 61.3211 403.463 62.4878C403.63 62.7378 403.755 63.0295 403.838 63.3628C404.005 63.6128 404.047 63.9045 403.963 64.2378C404.38 64.6545 404.672 65.2795 404.838 66.1128C405.088 66.8628 405.547 67.2378 406.213 67.2378C406.63 67.2378 406.922 66.9878 407.088 66.4878C407.338 65.9878 407.505 65.4878 407.588 64.9878C408.005 64.6545 408.255 64.3211 408.338 63.9878C408.422 63.6545 408.588 63.2795 408.838 62.8628C409.005 62.6128 409.213 62.4461 409.463 62.3628C409.713 62.1961 409.963 62.0295 410.213 61.8628C410.713 61.4461 411.213 60.8628 411.713 60.1128C412.213 59.3628 412.463 58.5295 412.463 57.6128C412.463 56.6961 412.38 55.8211 412.213 54.9878C412.13 54.1545 411.963 53.1545 411.713 51.9878C411.463 50.9878 411.38 50.3628 411.463 50.1128C411.63 49.7795 411.755 49.4045 411.838 48.9878C411.922 48.4045 412.088 47.7795 412.338 47.1128C412.505 46.5295 412.672 45.9878 412.838 45.4878C413.088 44.9878 413.297 44.4461 413.463 43.8628C413.713 43.0295 413.922 42.2378 414.088 41.4878C414.255 40.6545 414.422 39.8628 414.588 39.1128C414.838 38.3628 415.13 37.6128 415.463 36.8628C415.797 36.1128 416.047 35.4045 416.213 34.7378C416.463 33.8211 416.713 32.9045 416.963 31.9878C417.213 31.0711 417.547 30.1961 417.963 29.3628C417.963 28.1961 418.172 26.9878 418.588 25.7378C419.005 24.4878 419.338 23.2795 419.588 22.1128C419.755 21.2795 420.047 20.3211 420.463 19.2378C420.963 18.0711 421.63 17.4045 422.463 17.2378C423.63 17.3211 424.63 17.1961 425.463 16.8628C426.38 16.6961 427.213 16.3628 427.963 15.8628C428.713 15.3628 429.505 15.0711 430.338 14.9878C431.088 14.9045 431.88 14.9878 432.713 15.2378C433.547 15.4045 434.38 15.4461 435.213 15.3628C435.63 15.1961 436.088 15.0711 436.588 14.9878C437.172 14.8211 437.713 14.8211 438.213 14.9878L439.338 15.7378ZM296.588 29.6128C296.672 30.3628 297.13 30.9461 297.963 31.3628C298.797 31.7795 299.672 31.8211 300.588 31.4878C301.172 30.9878 301.338 30.3211 301.088 29.4878C300.838 28.6545 300.505 28.0295 300.088 27.6128C299.338 27.4461 298.547 27.5711 297.713 27.9878C296.88 28.4045 296.505 28.9461 296.588 29.6128ZM301.838 96.6128C301.755 97.0295 301.88 97.3628 302.213 97.6128C302.547 97.7795 302.963 97.9045 303.463 97.9878C303.963 98.0711 304.463 98.0711 304.963 97.9878C305.463 97.8211 305.838 97.6128 306.088 97.3628C306.255 97.1961 306.38 96.9461 306.463 96.6128C306.547 96.2795 306.672 95.9878 306.838 95.7378C306.588 95.5711 306.172 95.4878 305.588 95.4878C305.088 95.4045 304.547 95.4045 303.963 95.4878C303.463 95.5711 302.963 95.7378 302.463 95.9878C302.047 96.1545 301.838 96.3628 301.838 96.6128ZM311.213 109.738C311.88 109.571 312.63 109.488 313.463 109.488C314.38 109.488 314.963 109.154 315.213 108.488C314.797 107.904 314.172 107.571 313.338 107.488C312.505 107.404 311.755 107.279 311.088 107.113C310.672 106.696 310.297 106.196 309.963 105.613C309.63 105.029 309.213 104.529 308.713 104.113C308.297 103.613 307.797 103.238 307.213 102.988C306.713 102.738 306.047 102.738 305.213 102.988C304.963 103.904 305.13 104.654 305.713 105.238C306.38 105.738 306.922 106.321 307.338 106.988C307.505 107.154 307.547 107.404 307.463 107.738C307.463 107.988 307.547 108.196 307.713 108.363C308.047 108.779 308.547 109.071 309.213 109.238C309.963 109.404 310.63 109.571 311.213 109.738ZM314.088 33.4878C314.172 32.5711 314.13 31.5711 313.963 30.4878C313.88 29.3211 313.588 28.4461 313.088 27.8628C312.422 27.7795 311.755 27.6545 311.088 27.4878C310.505 27.3211 309.88 27.2378 309.213 27.2378C308.713 27.3211 308.297 27.4461 307.963 27.6128C307.63 27.6961 307.297 27.8211 306.963 27.9878C305.88 28.4878 305.422 29.0711 305.588 29.7378C305.755 30.4045 306.047 30.8211 306.463 30.9878C307.047 31.4045 307.672 31.6128 308.338 31.6128C309.088 31.5295 309.63 31.8211 309.963 32.4878C310.13 32.9045 310.172 33.2378 310.088 33.4878C310.088 33.7378 310.297 34.0295 310.713 34.3628C311.38 34.6128 311.963 34.5711 312.463 34.2378C312.963 33.9045 313.505 33.6545 314.088 33.4878ZM349.963 27.1128C350.63 27.4461 351.255 27.4878 351.838 27.2378C352.505 26.9045 352.88 26.3628 352.963 25.6128C352.713 25.1128 352.213 24.9045 351.463 24.9878C350.713 25.0711 350.172 25.3211 349.838 25.7378C349.838 25.9878 349.797 26.2378 349.713 26.4878C349.713 26.7378 349.797 26.9461 349.963 27.1128ZM386.713 31.1128C386.963 30.4461 386.963 29.8628 386.713 29.3628C386.547 28.7795 386.38 28.2795 386.213 27.8628C386.13 27.5295 386.088 27.1961 386.088 26.8628C386.088 26.5295 386.005 26.2795 385.838 26.1128C385.005 25.1961 384.463 24.6128 384.213 24.3628C384.047 24.0295 383.838 23.7795 383.588 23.6128C382.338 23.4461 381.13 23.4878 379.963 23.7378C378.88 23.9045 377.88 24.0295 376.963 24.1128C376.713 24.9461 376.63 25.4461 376.713 25.6128C376.797 25.7795 376.922 25.9461 377.088 26.1128C377.755 26.2795 378.297 26.4045 378.713 26.4878C379.13 26.5711 379.547 26.6128 379.963 26.6128C381.213 26.6128 381.922 26.9461 382.088 27.6128C382.338 28.1961 382.547 28.6961 382.713 29.1128C382.88 29.4461 383.047 29.6961 383.213 29.8628C383.463 30.0295 383.588 30.3211 383.588 30.7378C384.005 31.1545 384.463 31.4461 384.963 31.6128C385.547 31.6961 386.13 31.5295 386.713 31.1128ZM397.588 67.4878C398.088 67.4045 398.422 67.1128 398.588 66.6128C398.755 66.0295 398.672 65.4878 398.338 64.9878C396.505 65.1545 395.63 65.6128 395.713 66.3628C395.88 67.1128 396.505 67.4878 397.588 67.4878ZM401.463 76.4878C401.88 76.6545 402.422 76.8211 403.088 76.9878C403.755 77.1545 404.38 77.1545 404.963 76.9878C405.13 76.9045 405.38 76.6961 405.713 76.3628C406.13 76.0295 406.38 75.8211 406.463 75.7378C406.63 75.4045 406.672 75.0295 406.588 74.6128C406.588 74.1128 406.505 73.6545 406.338 73.2378C406.005 72.9878 405.63 72.8628 405.213 72.8628C404.88 72.8628 404.505 72.7795 404.088 72.6128C403.088 71.7795 402.338 71.2795 401.838 71.1128C401.338 70.9461 401.047 70.5295 400.963 69.8628C400.38 70.1961 399.963 70.8211 399.713 71.7378C399.547 72.5711 399.505 73.1128 399.588 73.3628C399.672 73.5295 399.797 73.7378 399.963 73.9878C400.13 74.1545 400.297 74.3211 400.463 74.4878C400.63 74.9045 400.797 75.3211 400.963 75.7378C401.13 76.0711 401.297 76.3211 401.463 76.4878ZM408.463 104.113C409.213 104.113 409.797 103.904 410.213 103.488C410.713 103.071 411.088 102.529 411.338 101.863C411.588 101.196 411.713 100.488 411.713 99.7378C411.713 98.9045 411.63 98.1128 411.463 97.3628C410.297 98.1961 409.547 98.9461 409.213 99.6128C408.88 100.196 408.505 100.738 408.088 101.238C407.672 101.404 407.255 101.613 406.838 101.863C406.505 102.113 406.338 102.446 406.338 102.863C406.338 103.363 406.588 103.738 407.088 103.988C407.588 104.154 408.047 104.196 408.463 104.113ZM436.088 40.6128C436.588 40.5295 436.963 40.6545 437.213 40.9878C437.463 41.3211 437.588 41.6961 437.588 42.1128C437.588 42.5295 437.505 42.9878 437.338 43.4878C437.255 43.9045 437.088 44.1961 436.838 44.3628C436.505 44.9461 436.255 45.4045 436.088 45.7378C435.922 46.0711 435.755 46.4045 435.588 46.7378C435.422 47.0711 435.297 47.4045 435.213 47.7378C435.13 48.0711 434.922 48.3211 434.588 48.4878C434.088 47.9878 433.797 47.3628 433.713 46.6128C433.713 45.8628 433.838 45.1128 434.088 44.3628C434.338 43.6128 434.63 42.9045 434.963 42.2378C435.38 41.5711 435.755 41.0295 436.088 40.6128ZM327.463 49.4878C326.963 49.5711 326.588 49.4461 326.338 49.1128C326.088 48.6961 325.963 48.3211 325.963 47.9878C325.963 47.5711 326.047 47.2378 326.213 46.9878C326.463 46.7378 326.838 46.7795 327.338 47.1128C327.755 47.3628 327.963 47.7795 327.963 48.3628C327.963 48.8628 327.797 49.2378 327.463 49.4878ZM326.963 54.6128C326.547 53.9461 326.38 53.1545 326.463 52.2378C326.63 51.3211 327.297 50.9045 328.463 50.9878C329.38 51.6545 330.005 52.5711 330.338 53.7378C330.672 54.9045 331.213 55.8211 331.963 56.4878C332.547 56.4045 332.922 56.1545 333.088 55.7378C333.255 55.2378 333.672 55.1545 334.338 55.4878C334.172 56.9045 333.963 58.2795 333.713 59.6128C333.463 60.8628 333.255 62.1961 333.088 63.6128C332.922 64.0295 332.63 64.3211 332.213 64.4878C331.797 64.6545 331.38 64.5295 330.963 64.1128C330.713 62.8628 330.338 61.4461 329.838 59.8628C329.672 59.1961 329.463 58.4878 329.213 57.7378C329.047 56.9045 328.88 56.2795 328.713 55.8628C328.547 55.5295 328.255 55.2795 327.838 55.1128C327.505 54.9461 327.213 54.7795 326.963 54.6128ZM407.713 59.4878C407.547 58.5711 407.588 57.7378 407.838 56.9878C408.172 56.1545 408.505 55.4045 408.838 54.7378C408.672 54.2378 408.713 53.8628 408.963 53.6128C409.213 53.3628 409.505 53.4045 409.838 53.7378C410.005 54.2378 410.13 54.8211 410.213 55.4878C410.38 56.1545 410.422 56.8211 410.338 57.4878C410.255 58.0711 410.047 58.6128 409.713 59.1128C409.463 59.5295 409.005 59.7795 408.338 59.8628L407.713 59.4878ZM424.463 86.6128C424.63 85.8628 425.213 85.6128 426.213 85.8628C426.463 86.2795 426.505 86.9045 426.338 87.7378C426.255 88.4878 426.005 89.0711 425.588 89.4878C425.422 89.6545 425.172 89.8211 424.838 89.9878C424.588 90.1545 424.422 90.3211 424.338 90.4878C423.838 90.4878 423.505 90.3211 423.338 89.9878C423.172 89.6545 423.088 89.2378 423.088 88.7378C423.172 88.2378 423.338 87.7795 423.588 87.3628C423.838 86.9461 424.13 86.6961 424.463 86.6128ZM422.838 91.3628C423.588 91.8628 424.088 92.2378 424.338 92.4878C424.588 92.7378 424.713 93.0711 424.713 93.4878C424.297 94.1545 424.088 94.5711 424.088 94.7378C424.172 94.8211 424.213 94.9045 424.213 94.9878C423.63 95.9878 423.255 96.6961 423.088 97.1128C422.922 97.4461 422.63 97.7378 422.213 97.9878C421.963 98.8211 421.755 99.6961 421.588 100.613C421.422 101.529 421.172 102.404 420.838 103.238C420.672 103.571 420.505 103.863 420.338 104.113C420.172 104.363 420.047 104.654 419.963 104.988C419.88 105.571 419.838 106.113 419.838 106.613C419.838 107.113 419.797 107.571 419.713 107.988C419.547 108.904 419.38 109.696 419.213 110.363C419.13 111.029 418.755 111.654 418.088 112.238C417.422 112.654 416.838 112.946 416.338 113.113C415.838 113.279 415.088 113.363 414.088 113.363C413.672 113.363 413.213 113.321 412.713 113.238C412.297 113.238 411.838 113.238 411.338 113.238C411.005 113.154 410.63 113.113 410.213 113.113C409.797 113.113 409.463 113.113 409.213 113.113C408.797 113.196 408.297 113.321 407.713 113.488C407.13 113.738 406.547 113.863 405.963 113.863C405.547 113.863 405.047 113.821 404.463 113.738C403.88 113.654 403.338 113.613 402.838 113.613C402.422 113.696 401.963 113.779 401.463 113.863C401.047 113.946 400.63 113.779 400.213 113.363C400.963 112.446 401.713 111.988 402.463 111.988C403.213 112.071 404.005 112.113 404.838 112.113C405.755 112.029 406.672 111.863 407.588 111.613C408.505 111.446 409.463 111.279 410.463 111.113C411.963 111.113 413.047 110.904 413.713 110.488C414.38 110.071 415.088 109.779 415.838 109.613C416.255 109.279 416.547 108.863 416.713 108.363C416.963 107.779 417.172 107.154 417.338 106.488C417.505 106.071 417.63 105.654 417.713 105.238C417.797 104.738 417.922 104.279 418.088 103.863C418.255 103.529 418.422 103.279 418.588 103.113C418.755 102.863 418.922 102.571 419.088 102.238C419.338 101.738 419.505 101.113 419.588 100.363C419.755 99.6128 419.922 98.9045 420.088 98.2378C420.422 97.5711 420.713 96.9461 420.963 96.3628C421.213 95.7795 421.422 95.1961 421.588 94.6128C421.838 93.9461 422.005 93.3628 422.088 92.8628C422.172 92.2795 422.422 91.7795 422.838 91.3628ZM303.838 116.738C304.922 117.238 306.13 117.446 307.463 117.363C308.88 117.279 310.172 117.321 311.338 117.488C311.505 118.321 311.255 118.863 310.588 119.113C310.005 119.363 309.255 119.488 308.338 119.488C307.672 119.488 306.963 119.446 306.213 119.363C305.547 119.363 304.922 119.363 304.338 119.363C304.088 119.363 303.797 119.321 303.463 119.238C303.13 119.238 302.88 119.196 302.713 119.113C302.047 118.863 301.505 118.488 301.088 117.988C300.672 117.488 300.255 116.946 299.838 116.363C299.005 115.613 298.505 115.071 298.338 114.738C298.255 114.488 298.088 114.279 297.838 114.113C297.422 113.696 297.047 113.321 296.713 112.988C296.463 112.654 296.255 112.154 296.088 111.488C296.005 110.904 296.005 110.363 296.088 109.863C296.255 109.446 296.255 108.946 296.088 108.363C297.172 108.696 297.88 109.238 298.213 109.988C298.547 110.738 299.005 111.446 299.588 112.113C299.755 112.779 300.047 113.321 300.463 113.738C300.88 114.154 301.297 114.571 301.713 114.988C302.047 115.321 302.38 115.654 302.713 115.988C303.047 116.321 303.422 116.571 303.838 116.738ZM318.213 117.238C318.63 117.654 318.797 117.946 318.713 118.113C318.63 118.279 318.547 118.488 318.463 118.738C318.213 118.904 317.838 119.029 317.338 119.113C316.838 119.196 316.297 119.238 315.713 119.238C315.213 119.238 314.755 119.154 314.338 118.988C313.922 118.904 313.672 118.738 313.588 118.488C313.505 118.154 313.588 117.904 313.838 117.738C314.172 117.571 314.505 117.446 314.838 117.363C315.255 117.279 315.672 117.238 316.088 117.238C316.505 117.321 316.838 117.363 317.088 117.363L318.213 117.238Z" fill="#C62220"/>
<path d="M160.453 152.703C161.255 152.503 162.066 152.293 162.887 152.074C163.725 151.855 164.5 151.637 165.211 151.418C164.919 150.525 164.618 149.595 164.309 148.629C163.999 147.663 163.671 146.706 163.324 145.758C162.996 144.792 162.659 143.862 162.312 142.969C161.966 142.057 161.602 141.228 161.219 140.48C159.669 142.595 158.111 144.819 156.543 147.152C154.993 149.486 153.517 151.865 152.113 154.289C152.66 154.234 153.234 154.198 153.836 154.18C154.438 154.143 154.921 154.07 155.285 153.961C155.777 153.815 156.215 153.688 156.598 153.578C156.999 153.469 157.391 153.368 157.773 153.277C158.174 153.186 158.585 153.095 159.004 153.004C159.423 152.913 159.906 152.812 160.453 152.703ZM178.719 166.484C178.719 166.94 178.628 167.368 178.445 167.77C178.281 168.171 178.044 168.526 177.734 168.836C177.443 169.128 177.078 169.365 176.641 169.547C176.221 169.729 175.766 169.82 175.273 169.82C174.818 169.82 174.371 169.674 173.934 169.383C173.496 169.091 173.068 168.717 172.648 168.262C172.247 167.806 171.855 167.296 171.473 166.73C171.108 166.147 170.771 165.564 170.461 164.98C170.169 164.397 169.905 163.841 169.668 163.312C169.431 162.784 169.24 162.346 169.094 162C168.893 161.508 168.693 161.052 168.492 160.633C168.292 160.214 168.082 159.676 167.863 159.02C167.736 158.655 167.635 158.382 167.562 158.199C167.508 158.017 167.453 157.88 167.398 157.789C167.362 157.68 167.326 157.598 167.289 157.543C167.271 157.47 167.243 157.37 167.207 157.242C166.842 157.406 166.451 157.507 166.031 157.543C165.612 157.561 165.147 157.57 164.637 157.57C164.546 157.57 164.391 157.607 164.172 157.68C163.953 157.734 163.698 157.807 163.406 157.898C163.133 157.99 162.841 158.09 162.531 158.199C162.24 158.29 161.957 158.372 161.684 158.445C160.809 158.664 159.861 158.874 158.84 159.074C157.819 159.275 156.753 159.475 155.641 159.676C154.529 159.858 153.389 160.049 152.223 160.25C151.074 160.432 149.917 160.624 148.75 160.824C148.622 160.842 148.513 160.879 148.422 160.934C148.331 160.988 148.203 161.134 148.039 161.371C147.875 161.59 147.629 161.936 147.301 162.41C146.973 162.884 146.508 163.559 145.906 164.434C145.214 165.436 144.557 166.311 143.938 167.059C143.318 167.788 142.734 168.417 142.188 168.945C141.659 169.474 141.094 169.875 140.492 170.148C139.909 170.422 139.298 170.559 138.66 170.559C137.822 170.559 137.074 170.449 136.418 170.23C135.762 170.03 135.206 169.766 134.75 169.438C134.312 169.109 133.975 168.754 133.738 168.371C133.52 167.988 133.41 167.633 133.41 167.305C133.41 166.685 133.674 166.257 134.203 166.02C134.732 165.764 135.461 165.555 136.391 165.391C136.391 165.372 136.491 165.236 136.691 164.98C136.892 164.725 137.129 164.434 137.402 164.105C137.676 163.777 137.94 163.458 138.195 163.148C138.469 162.82 138.66 162.574 138.77 162.41C139.48 161.426 140.219 160.405 140.984 159.348C141.768 158.272 142.625 157.042 143.555 155.656V155.684C144.029 154.991 144.411 154.417 144.703 153.961C145.013 153.505 145.305 153.077 145.578 152.676C145.852 152.275 146.134 151.865 146.426 151.445C146.736 151.026 147.109 150.507 147.547 149.887C148.677 148.301 149.661 146.961 150.5 145.867C151.357 144.755 152.059 143.835 152.605 143.105C153.262 142.085 153.882 141.109 154.465 140.18C154.72 139.779 154.966 139.378 155.203 138.977C155.44 138.557 155.668 138.156 155.887 137.773C156.105 137.391 156.297 137.035 156.461 136.707C156.643 136.361 156.78 136.069 156.871 135.832C159.04 130.527 160.9 127.875 162.449 127.875C163.124 127.875 163.671 127.93 164.09 128.039C164.509 128.13 164.828 128.303 165.047 128.559C165.284 128.796 165.439 129.115 165.512 129.516C165.603 129.917 165.648 130.418 165.648 131.02C165.648 131.585 165.648 132.031 165.648 132.359C165.648 132.669 165.639 132.943 165.621 133.18C165.603 133.417 165.585 133.654 165.566 133.891C165.566 134.128 165.548 134.447 165.512 134.848C165.949 135.777 166.368 136.734 166.77 137.719C167.189 138.703 167.581 139.678 167.945 140.645C168.018 140.863 168.173 141.328 168.41 142.039C168.665 142.732 168.957 143.552 169.285 144.5C169.632 145.448 169.987 146.451 170.352 147.508C170.734 148.565 171.081 149.559 171.391 150.488C171.719 151.418 172.001 152.22 172.238 152.895C172.475 153.569 172.63 153.997 172.703 154.18C172.94 155.201 173.605 156.887 174.699 159.238C174.845 159.53 174.964 159.785 175.055 160.004C175.164 160.223 175.283 160.451 175.41 160.688C175.556 160.924 175.738 161.198 175.957 161.508C176.176 161.818 176.467 162.219 176.832 162.711C178.09 164.424 178.719 165.682 178.719 166.484ZM193.293 162.684C193.293 163.085 193.202 163.714 193.02 164.57C192.965 164.826 192.773 165.145 192.445 165.527C192.117 165.91 191.634 166.357 190.996 166.867C190.413 167.341 189.875 167.697 189.383 167.934C188.909 168.171 188.508 168.289 188.18 168.289C187.487 168.289 186.931 168.216 186.512 168.07C186.092 167.906 185.764 167.669 185.527 167.359C185.309 167.031 185.163 166.612 185.09 166.102C185.017 165.591 184.98 164.98 184.98 164.27C184.98 163.759 184.98 163.331 184.98 162.984C184.999 162.638 185.035 162.337 185.09 162.082C185.254 160.824 186.849 160.195 189.875 160.195C190.604 160.195 191.178 160.286 191.598 160.469C192.035 160.651 192.427 160.943 192.773 161.344C193.12 161.69 193.293 162.137 193.293 162.684ZM239.996 161.125C239.996 161.635 239.887 162.128 239.668 162.602C239.449 163.057 239.139 163.458 238.738 163.805C238.337 164.133 237.854 164.397 237.289 164.598C236.724 164.798 236.095 164.898 235.402 164.898C234.29 164.898 232.613 164.516 230.371 163.75C228.493 163.094 226.561 162.355 224.574 161.535C222.605 160.697 220.582 159.758 218.504 158.719C217.52 158.227 216.298 157.762 214.84 157.324C213.4 156.887 211.823 156.559 210.109 156.34C210.036 156.486 209.964 156.75 209.891 157.133C209.836 157.497 209.781 157.908 209.727 158.363C209.69 158.819 209.663 159.284 209.645 159.758C209.626 160.232 209.617 160.651 209.617 161.016C209.617 161.818 209.681 162.501 209.809 163.066C209.936 163.613 210.128 164.169 210.383 164.734C210.729 165.409 210.984 166.001 211.148 166.512C211.312 167.004 211.395 167.396 211.395 167.688C211.395 168.398 211.03 169.009 210.301 169.52C209.572 170.03 208.505 170.467 207.102 170.832C206.172 170.285 205.424 169.684 204.859 169.027C204.294 168.371 203.857 167.651 203.547 166.867C203.237 166.083 203.027 165.245 202.918 164.352C202.827 163.44 202.781 162.483 202.781 161.48C202.781 160.879 202.79 160.049 202.809 158.992C202.845 157.917 202.882 156.704 202.918 155.355C202.973 153.988 203.027 152.53 203.082 150.98C203.137 149.431 203.191 147.882 203.246 146.332C203.301 144.783 203.355 143.279 203.41 141.82C203.465 140.362 203.51 139.04 203.547 137.855C203.602 136.671 203.638 135.686 203.656 134.902C203.693 134.1 203.711 133.581 203.711 133.344C203.711 133.253 203.702 133.134 203.684 132.988C203.665 132.824 203.638 132.651 203.602 132.469C203.583 132.286 203.565 132.104 203.547 131.922C203.529 131.74 203.52 131.594 203.52 131.484C203.52 130.737 203.866 130.017 204.559 129.324C205.215 128.704 205.99 128.395 206.883 128.395C207.612 128.395 208.332 128.586 209.043 128.969C210.1 129.497 210.629 130.126 210.629 130.855C210.629 131.111 210.592 131.421 210.52 131.785C210.465 132.15 210.419 132.469 210.383 132.742C210.292 133.398 210.219 134.073 210.164 134.766C210.109 135.44 210.064 136.151 210.027 136.898C209.936 138.758 209.854 140.745 209.781 142.859C209.727 144.956 209.663 147.207 209.59 149.613C209.717 149.54 209.882 149.449 210.082 149.34C210.301 149.23 210.529 149.112 210.766 148.984C211.003 148.839 211.24 148.693 211.477 148.547C211.714 148.401 211.923 148.264 212.105 148.137C213.582 147.243 215.049 146.177 216.508 144.938C217.984 143.68 219.434 142.203 220.855 140.508C221.803 139.378 222.669 138.366 223.453 137.473C224.237 136.561 224.975 135.723 225.668 134.957C226.361 134.173 227.017 133.435 227.637 132.742C228.275 132.049 228.922 131.366 229.578 130.691C229.706 130.564 229.87 130.409 230.07 130.227C230.271 130.026 230.49 129.844 230.727 129.68C230.982 129.497 231.246 129.352 231.52 129.242C231.793 129.115 232.076 129.051 232.367 129.051C232.641 129.051 232.96 129.178 233.324 129.434C233.689 129.689 234.026 129.99 234.336 130.336C234.664 130.682 234.938 131.047 235.156 131.43C235.393 131.794 235.512 132.104 235.512 132.359C235.512 132.669 235.366 133.116 235.074 133.699L234.609 134.656C234.555 134.747 234.5 134.866 234.445 135.012C234.409 135.158 234.372 135.276 234.336 135.367C234.281 135.531 234.227 135.677 234.172 135.805C234.117 135.932 234.035 136.06 233.926 136.188C233.816 136.315 233.671 136.443 233.488 136.57C233.324 136.698 233.096 136.835 232.805 136.98C232.622 137.072 232.422 137.154 232.203 137.227C232.003 137.299 231.802 137.382 231.602 137.473C231.419 137.546 231.255 137.628 231.109 137.719C230.982 137.792 230.9 137.874 230.863 137.965C230.243 138.931 229.724 139.688 229.305 140.234C228.885 140.763 228.521 141.228 228.211 141.629C227.701 142.267 227.108 142.941 226.434 143.652C225.759 144.345 225.076 145.01 224.383 145.648C223.69 146.286 222.97 146.924 222.223 147.562C221.493 148.182 220.783 148.747 220.09 149.258C219.798 149.477 219.497 149.686 219.188 149.887C218.896 150.069 218.577 150.27 218.23 150.488C217.902 150.707 217.547 150.944 217.164 151.199C216.781 151.436 216.371 151.71 215.934 152.02C218.085 152.767 220.309 153.642 222.605 154.645C224.902 155.629 227.29 156.577 229.77 157.488C230.572 157.78 231.191 158.008 231.629 158.172C232.066 158.336 232.431 158.464 232.723 158.555C233.014 158.628 233.27 158.673 233.488 158.691C233.725 158.71 234.035 158.719 234.418 158.719C234.6 158.719 234.865 158.701 235.211 158.664C235.557 158.628 235.94 158.582 236.359 158.527C236.779 158.473 237.216 158.409 237.672 158.336C238.146 158.263 238.592 158.199 239.012 158.145C239.322 158.655 239.559 159.165 239.723 159.676C239.905 160.168 239.996 160.651 239.996 161.125ZM261.844 152.375C261.844 151.919 261.816 151.445 261.762 150.953C261.725 150.461 261.634 150.005 261.488 149.586C261.342 149.148 261.142 148.775 260.887 148.465C260.632 148.137 260.294 147.918 259.875 147.809C259.237 147.645 258.717 147.471 258.316 147.289C257.915 147.089 257.596 146.906 257.359 146.742C257.122 146.578 256.958 146.441 256.867 146.332C256.776 146.223 256.712 146.168 256.676 146.168C256.53 146.168 256.32 146.296 256.047 146.551C255.792 146.788 255.5 147.098 255.172 147.48C254.862 147.863 254.534 148.273 254.188 148.711C253.859 149.148 253.54 149.559 253.23 149.941C252.848 150.415 252.483 150.88 252.137 151.336C251.809 151.773 251.48 152.238 251.152 152.73C250.842 153.204 250.533 153.706 250.223 154.234C249.913 154.763 249.594 155.346 249.266 155.984C248.974 156.568 248.755 157.288 248.609 158.145C248.464 158.983 248.391 159.776 248.391 160.523C248.391 160.833 248.427 161.152 248.5 161.48C248.573 161.79 248.682 162.073 248.828 162.328C248.974 162.583 249.165 162.793 249.402 162.957C249.639 163.121 249.931 163.203 250.277 163.203C251.116 163.203 251.818 163.167 252.383 163.094C252.948 163.003 253.477 162.857 253.969 162.656C254.461 162.438 254.953 162.155 255.445 161.809C255.956 161.444 256.566 160.997 257.277 160.469C257.605 160.214 257.934 159.922 258.262 159.594C258.59 159.247 258.918 158.883 259.246 158.5C259.574 158.099 259.893 157.689 260.203 157.27C260.513 156.832 260.796 156.413 261.051 156.012C261.197 155.793 261.315 155.51 261.406 155.164C261.516 154.799 261.598 154.435 261.652 154.07C261.725 153.706 261.771 153.368 261.789 153.059C261.826 152.749 261.844 152.53 261.844 152.402V152.375ZM283.062 146.223C283.062 146.551 282.99 146.897 282.844 147.262C282.716 147.626 282.534 147.982 282.297 148.328C282.06 148.656 281.786 148.966 281.477 149.258C281.185 149.549 280.884 149.796 280.574 149.996C279.918 150.434 278.961 150.816 277.703 151.145C276.464 151.473 274.96 151.637 273.191 151.637C272.681 151.637 272.134 151.6 271.551 151.527C270.986 151.454 270.402 151.354 269.801 151.227C269.217 151.099 268.634 150.944 268.051 150.762C267.486 150.561 266.939 150.342 266.41 150.105C266.52 150.27 266.611 150.497 266.684 150.789C266.757 151.062 266.802 151.354 266.82 151.664C266.857 151.974 266.875 152.275 266.875 152.566C266.893 152.84 266.902 153.059 266.902 153.223C266.902 154.389 266.693 155.556 266.273 156.723C265.872 157.871 265.335 158.974 264.66 160.031C263.986 161.089 263.22 162.073 262.363 162.984C261.507 163.878 260.632 164.652 259.738 165.309C259.027 165.837 258.234 166.293 257.359 166.676C256.503 167.059 255.591 167.378 254.625 167.633C253.677 167.888 252.693 168.079 251.672 168.207C250.669 168.335 249.648 168.398 248.609 168.398C247.753 168.398 246.932 168.189 246.148 167.77C245.365 167.35 244.672 166.812 244.07 166.156C243.487 165.482 243.013 164.725 242.648 163.887C242.302 163.048 242.129 162.219 242.129 161.398C242.129 159.94 242.32 158.536 242.703 157.188C243.104 155.839 243.633 154.535 244.289 153.277C244.945 152.02 245.711 150.789 246.586 149.586C247.461 148.365 248.382 147.161 249.348 145.977C249.913 145.284 250.56 144.609 251.289 143.953C252.018 143.297 252.784 142.714 253.586 142.203C254.406 141.674 255.227 141.255 256.047 140.945C256.885 140.635 257.688 140.48 258.453 140.48C259.091 140.48 259.638 140.553 260.094 140.699C260.568 140.845 260.996 141.055 261.379 141.328C261.78 141.583 262.163 141.902 262.527 142.285C262.892 142.668 263.275 143.096 263.676 143.57L264.25 144.199C264.396 144.345 264.788 144.564 265.426 144.855C266.082 145.147 266.857 145.439 267.75 145.73C268.643 146.004 269.582 146.25 270.566 146.469C271.551 146.688 272.444 146.797 273.246 146.797C274.066 146.797 274.841 146.788 275.57 146.77C276.299 146.751 277.029 146.688 277.758 146.578C278.505 146.451 279.28 146.268 280.082 146.031C280.902 145.776 281.805 145.43 282.789 144.992C282.88 145.156 282.944 145.366 282.98 145.621C283.035 145.876 283.062 146.077 283.062 146.223ZM281.312 143.625C281.586 143.224 281.923 142.823 282.324 142.422C282.725 142.021 283.145 141.656 283.582 141.328C284.02 141 284.439 140.736 284.84 140.535C285.259 140.316 285.605 140.207 285.879 140.207C286.28 140.207 286.663 140.28 287.027 140.426C287.392 140.572 287.711 140.772 287.984 141.027C288.276 141.264 288.504 141.547 288.668 141.875C288.85 142.185 288.941 142.504 288.941 142.832C288.941 143.251 288.823 143.689 288.586 144.145C288.367 144.582 288.085 145.02 287.738 145.457C287.41 145.876 287.046 146.286 286.645 146.688C286.262 147.07 285.897 147.435 285.551 147.781C285.223 148.109 284.94 148.401 284.703 148.656C284.484 148.911 284.375 149.112 284.375 149.258C284.375 149.477 284.576 149.814 284.977 150.27C285.378 150.707 285.879 151.199 286.48 151.746C287.082 152.293 287.747 152.858 288.477 153.441C289.206 154.025 289.898 154.553 290.555 155.027C291.138 155.447 291.639 155.866 292.059 156.285C292.496 156.704 292.76 157.115 292.852 157.516C293.526 156.987 294.118 156.513 294.629 156.094C295.139 155.674 295.677 155.201 296.242 154.672C296.807 154.143 297.454 153.505 298.184 152.758C298.931 152.01 299.861 151.035 300.973 149.832C301.574 149.194 302.139 148.592 302.668 148.027C303.215 147.444 303.716 146.943 304.172 146.523C304.646 146.104 305.074 145.776 305.457 145.539C305.858 145.284 306.204 145.156 306.496 145.156C306.952 145.156 307.271 145.329 307.453 145.676C307.635 146.004 307.727 146.432 307.727 146.961C307.727 147.161 307.59 147.517 307.316 148.027C307.043 148.538 306.678 149.13 306.223 149.805C305.785 150.461 305.275 151.181 304.691 151.965C304.126 152.73 303.543 153.487 302.941 154.234C302.358 154.982 301.784 155.684 301.219 156.34C300.672 156.978 300.18 157.507 299.742 157.926C299.669 157.999 299.487 158.172 299.195 158.445C298.922 158.719 298.594 159.047 298.211 159.43C297.828 159.794 297.409 160.195 296.953 160.633C296.516 161.052 296.096 161.462 295.695 161.863C295.294 162.246 294.939 162.592 294.629 162.902C294.319 163.194 294.1 163.404 293.973 163.531C293.882 163.622 293.672 163.841 293.344 164.188C293.034 164.534 292.66 164.944 292.223 165.418C291.803 165.892 291.348 166.393 290.855 166.922C290.363 167.451 289.898 167.952 289.461 168.426C289.042 168.9 288.659 169.31 288.312 169.656C287.984 170.003 287.766 170.23 287.656 170.34C286.617 171.27 285.596 172.044 284.594 172.664C283.609 173.302 282.579 173.621 281.504 173.621C280.993 173.621 280.52 173.566 280.082 173.457C279.645 173.348 279.262 173.193 278.934 172.992C278.605 172.792 278.35 172.546 278.168 172.254C277.986 171.962 277.895 171.625 277.895 171.242C277.895 170.604 278.104 170.021 278.523 169.492C278.961 168.964 279.499 168.471 280.137 168.016C280.793 167.542 281.504 167.104 282.27 166.703C283.035 166.284 283.755 165.883 284.43 165.5C285.523 164.862 286.326 164.142 286.836 163.34C287.365 162.52 287.629 161.708 287.629 160.906C287.629 160.323 287.273 159.676 286.562 158.965C285.87 158.236 284.703 157.352 283.062 156.312C282.406 155.893 281.814 155.438 281.285 154.945C280.757 154.435 280.301 153.934 279.918 153.441C279.553 152.931 279.271 152.439 279.07 151.965C278.87 151.473 278.77 151.044 278.77 150.68C278.77 150.005 278.806 149.404 278.879 148.875C278.97 148.328 279.107 147.79 279.289 147.262C279.49 146.733 279.754 146.186 280.082 145.621C280.41 145.038 280.82 144.372 281.312 143.625ZM315.055 128.859C315.055 129.461 314.964 130.035 314.781 130.582C314.599 131.111 314.335 131.612 313.988 132.086C313.296 133.052 312.229 133.535 310.789 133.535C310.297 133.535 309.786 133.499 309.258 133.426C308.729 133.335 308.246 133.207 307.809 133.043C307.389 132.861 307.043 132.642 306.77 132.387C306.496 132.132 306.359 131.84 306.359 131.512C306.359 130.947 306.505 130.354 306.797 129.734C307.107 129.096 307.49 128.513 307.945 127.984C308.401 127.438 308.902 126.991 309.449 126.645C310.014 126.28 310.552 126.098 311.062 126.098C311.701 126.098 312.266 126.143 312.758 126.234C313.25 126.307 313.669 126.444 314.016 126.645C314.362 126.845 314.617 127.128 314.781 127.492C314.964 127.857 315.055 128.312 315.055 128.859ZM325.691 160.578C325.09 161.18 324.516 161.745 323.969 162.273C323.44 162.802 322.902 163.303 322.355 163.777C321.809 164.251 321.253 164.716 320.688 165.172C320.141 165.628 319.557 166.083 318.938 166.539C317.68 167.451 316.44 168.161 315.219 168.672C313.997 169.164 312.84 169.41 311.746 169.41C310.47 169.41 309.358 169.201 308.41 168.781C307.48 168.344 306.678 167.76 306.004 167.031C305.348 166.284 304.81 165.436 304.391 164.488C303.971 163.522 303.634 162.51 303.379 161.453C303.142 160.378 302.978 159.293 302.887 158.199C302.796 157.105 302.75 156.066 302.75 155.082C302.75 154.699 302.777 154.152 302.832 153.441C302.887 152.712 302.96 151.956 303.051 151.172C303.16 150.37 303.27 149.595 303.379 148.848C303.507 148.1 303.634 147.499 303.762 147.043C303.908 146.569 304.135 146.122 304.445 145.703C304.773 145.266 305.174 144.865 305.648 144.5C306.596 143.734 307.654 143.352 308.82 143.352C310.005 143.352 310.598 144.062 310.598 145.484C310.598 145.977 310.543 146.56 310.434 147.234C310.324 147.909 310.224 148.592 310.133 149.285C310.023 150.105 309.923 150.844 309.832 151.5C309.741 152.138 309.659 152.721 309.586 153.25C309.531 153.76 309.486 154.225 309.449 154.645C309.413 155.064 309.395 155.465 309.395 155.848C309.395 156.54 309.44 157.315 309.531 158.172C309.641 159.029 309.796 159.831 309.996 160.578C310.197 161.307 310.443 161.927 310.734 162.438C311.026 162.93 311.363 163.176 311.746 163.176C312.311 163.176 312.949 163.112 313.66 162.984C314.371 162.839 315.128 162.538 315.93 162.082C316.695 161.645 317.488 161.134 318.309 160.551C319.147 159.967 320.004 159.293 320.879 158.527C321.699 157.816 322.501 157.105 323.285 156.395C324.087 155.684 324.889 154.909 325.691 154.07C326.056 153.688 326.384 153.341 326.676 153.031C326.986 152.721 327.268 152.43 327.523 152.156C327.779 151.865 328.025 151.591 328.262 151.336C328.517 151.062 328.781 150.78 329.055 150.488C329.128 150.397 329.219 150.297 329.328 150.188C329.438 150.06 329.556 149.941 329.684 149.832C329.811 149.704 329.948 149.604 330.094 149.531C330.24 149.44 330.385 149.395 330.531 149.395C330.732 149.395 330.941 149.44 331.16 149.531C331.397 149.622 331.579 149.805 331.707 150.078C331.835 150.333 331.908 150.589 331.926 150.844C331.944 151.081 331.953 151.281 331.953 151.445C331.953 151.628 331.853 151.928 331.652 152.348C331.452 152.749 331.188 153.223 330.859 153.77C330.531 154.316 330.148 154.9 329.711 155.52C329.273 156.139 328.827 156.759 328.371 157.379C327.915 157.999 327.451 158.591 326.977 159.156C326.521 159.703 326.092 160.177 325.691 160.578ZM375.375 149.449C375.375 149.796 375.311 150.178 375.184 150.598C375.056 150.999 374.892 151.4 374.691 151.801C374.509 152.202 374.299 152.585 374.062 152.949C373.844 153.296 373.634 153.587 373.434 153.824C372.85 154.553 372.194 155.328 371.465 156.148C370.754 156.969 370.007 157.78 369.223 158.582C368.439 159.384 367.637 160.159 366.816 160.906C365.996 161.635 365.176 162.273 364.355 162.82C363.717 163.258 363.098 163.668 362.496 164.051C361.913 164.415 361.302 164.743 360.664 165.035C360.044 165.327 359.379 165.555 358.668 165.719C357.975 165.883 357.21 165.965 356.371 165.965C355.004 165.965 353.865 165.691 352.953 165.145C352.06 164.598 351.331 163.868 350.766 162.957C350.201 162.046 349.763 161.007 349.453 159.84C349.161 158.655 348.934 157.424 348.77 156.148C348.533 154.417 348.268 153.049 347.977 152.047C347.685 151.026 347.329 150.516 346.91 150.516C346.546 150.516 346.19 150.607 345.844 150.789C345.497 150.953 345.06 151.318 344.531 151.883C344.021 152.448 343.365 153.277 342.562 154.371C341.779 155.447 340.749 156.887 339.473 158.691C339.035 159.311 338.497 160.004 337.859 160.77C337.24 161.535 336.583 162.273 335.891 162.984C335.198 163.677 334.505 164.297 333.812 164.844C333.138 165.372 332.509 165.737 331.926 165.938C329.629 165.427 328.48 163.23 328.48 159.348C328.48 158.363 328.59 156.914 328.809 155C328.918 154.143 329.036 153.241 329.164 152.293C329.31 151.345 329.483 150.397 329.684 149.449C329.902 148.483 330.158 147.544 330.449 146.633C330.741 145.703 331.078 144.846 331.461 144.062C331.68 143.625 331.926 143.279 332.199 143.023C332.473 142.768 332.746 142.577 333.02 142.449C333.311 142.322 333.612 142.24 333.922 142.203C334.232 142.167 334.542 142.148 334.852 142.148C335.125 142.148 335.389 142.221 335.645 142.367C335.9 142.495 336.128 142.686 336.328 142.941C336.529 143.197 336.684 143.507 336.793 143.871C336.921 144.236 336.984 144.655 336.984 145.129C336.984 145.548 336.948 145.949 336.875 146.332C336.802 146.715 336.702 147.116 336.574 147.535C336.447 147.936 336.31 148.365 336.164 148.82C336.036 149.276 335.9 149.796 335.754 150.379C335.663 150.762 335.526 151.254 335.344 151.855C335.18 152.457 335.007 153.086 334.824 153.742C334.66 154.38 334.505 155.009 334.359 155.629C334.214 156.249 334.122 156.768 334.086 157.188C334.414 156.805 334.788 156.331 335.207 155.766C335.645 155.182 336.1 154.562 336.574 153.906C337.048 153.232 337.531 152.548 338.023 151.855C338.516 151.163 339.008 150.507 339.5 149.887C340.138 149.085 340.767 148.328 341.387 147.617C342.007 146.906 342.654 146.296 343.328 145.785C344.021 145.257 344.768 144.846 345.57 144.555C346.372 144.245 347.275 144.09 348.277 144.09C349.462 144.09 350.428 144.336 351.176 144.828C351.923 145.302 352.516 145.967 352.953 146.824C353.409 147.681 353.746 148.702 353.965 149.887C354.184 151.053 354.357 152.329 354.484 153.715C354.557 154.426 354.648 155.155 354.758 155.902C354.885 156.65 355.068 157.333 355.305 157.953C355.542 158.555 355.852 159.056 356.234 159.457C356.617 159.84 357.091 160.031 357.656 160.031C358.495 160.031 359.406 159.812 360.391 159.375C361.393 158.919 362.441 158.299 363.535 157.516C364.629 156.732 365.75 155.82 366.898 154.781C368.047 153.742 369.195 152.63 370.344 151.445C370.708 151.062 371.055 150.689 371.383 150.324C371.729 149.941 372.057 149.604 372.367 149.312C372.677 149.003 372.978 148.757 373.27 148.574C373.561 148.392 373.853 148.301 374.145 148.301C374.254 148.301 374.382 148.319 374.527 148.355C374.673 148.374 374.81 148.428 374.938 148.52C375.065 148.592 375.165 148.702 375.238 148.848C375.329 148.993 375.375 149.194 375.375 149.449ZM408.406 145.156C408.406 145.503 408.288 145.876 408.051 146.277C407.832 146.66 407.54 147.052 407.176 147.453C406.829 147.836 406.428 148.219 405.973 148.602C405.517 148.984 405.061 149.34 404.605 149.668C404.15 149.978 403.712 150.251 403.293 150.488C402.892 150.725 402.555 150.908 402.281 151.035C401.789 151.236 401.151 151.427 400.367 151.609C399.602 151.773 398.79 151.919 397.934 152.047C397.095 152.156 396.275 152.247 395.473 152.32C394.689 152.393 394.023 152.43 393.477 152.43C393.349 152.43 393.167 152.421 392.93 152.402C392.711 152.366 392.465 152.32 392.191 152.266C391.936 152.211 391.672 152.147 391.398 152.074C391.143 151.983 390.924 151.874 390.742 151.746C390.943 152.165 391.052 152.63 391.07 153.141C391.107 153.633 391.125 154.125 391.125 154.617C391.125 154.964 391.089 155.374 391.016 155.848C390.943 156.322 390.842 156.805 390.715 157.297C390.605 157.789 390.469 158.263 390.305 158.719C390.141 159.174 389.967 159.557 389.785 159.867C389.329 160.651 388.837 161.371 388.309 162.027C387.798 162.684 387.224 163.294 386.586 163.859C385.948 164.424 385.228 164.953 384.426 165.445C383.624 165.938 382.694 166.421 381.637 166.895C380.507 167.387 379.376 167.733 378.246 167.934C377.116 168.116 375.949 168.207 374.746 168.207C373.853 168.207 373.06 167.979 372.367 167.523C371.674 167.049 371.091 166.421 370.617 165.637C370.143 164.853 369.779 163.951 369.523 162.93C369.286 161.909 369.168 160.842 369.168 159.73C369.168 159.457 369.186 159.12 369.223 158.719C369.277 158.299 369.341 157.88 369.414 157.461C369.505 157.042 369.596 156.632 369.688 156.23C369.797 155.829 369.897 155.492 369.988 155.219C370.243 154.453 370.608 153.578 371.082 152.594C371.574 151.609 372.148 150.607 372.805 149.586C373.461 148.547 374.19 147.535 374.992 146.551C375.794 145.548 376.642 144.664 377.535 143.898C378.447 143.115 379.385 142.486 380.352 142.012C381.336 141.538 382.32 141.301 383.305 141.301C383.724 141.301 384.061 141.346 384.316 141.438C384.572 141.51 384.781 141.62 384.945 141.766C385.109 141.893 385.255 142.048 385.383 142.23C385.529 142.395 385.684 142.559 385.848 142.723C385.975 142.686 386.103 142.659 386.23 142.641C386.376 142.622 386.522 142.613 386.668 142.613C387.233 142.613 387.789 142.832 388.336 143.27C388.883 143.707 389.439 144.19 390.004 144.719C390.259 144.956 390.514 145.202 390.77 145.457C391.043 145.694 391.289 145.913 391.508 146.113C391.727 146.296 391.918 146.451 392.082 146.578C392.264 146.688 392.392 146.742 392.465 146.742C392.939 146.742 393.449 146.742 393.996 146.742C394.561 146.724 395.126 146.706 395.691 146.688C396.275 146.651 396.831 146.605 397.359 146.551C397.906 146.496 398.398 146.432 398.836 146.359C398.891 146.341 399.128 146.286 399.547 146.195C399.966 146.086 400.467 145.958 401.051 145.812C401.652 145.648 402.299 145.475 402.992 145.293C403.685 145.111 404.323 144.947 404.906 144.801C405.508 144.637 406.018 144.509 406.438 144.418C406.875 144.309 407.13 144.254 407.203 144.254C407.568 144.254 407.859 144.299 408.078 144.391C408.297 144.482 408.406 144.737 408.406 145.156ZM376.852 163.395C378.328 163.395 379.632 163.003 380.762 162.219C381.91 161.435 382.876 160.396 383.66 159.102C384.444 157.789 385.046 156.303 385.465 154.645C385.902 152.967 386.13 151.245 386.148 149.477C386.021 149.203 385.829 148.921 385.574 148.629C385.337 148.337 385.064 148.082 384.754 147.863C384.444 147.626 384.125 147.435 383.797 147.289C383.469 147.143 383.168 147.07 382.895 147.07C382.457 147.07 381.983 147.243 381.473 147.59C380.962 147.936 380.488 148.292 380.051 148.656C379.613 149.021 379.176 149.504 378.738 150.105C378.319 150.689 377.927 151.345 377.562 152.074C377.198 152.803 376.861 153.578 376.551 154.398C376.241 155.201 375.977 156.003 375.758 156.805C375.539 157.589 375.366 158.354 375.238 159.102C375.129 159.849 375.074 160.514 375.074 161.098C375.074 161.389 375.12 161.672 375.211 161.945C375.302 162.219 375.421 162.465 375.566 162.684C375.73 162.902 375.922 163.076 376.141 163.203C376.359 163.331 376.596 163.395 376.852 163.395ZM433.426 147.809C433.426 148.173 433.371 148.483 433.262 148.738C433.152 148.993 432.997 149.212 432.797 149.395C432.615 149.577 432.396 149.741 432.141 149.887C431.885 150.033 431.612 150.178 431.32 150.324C431.138 150.415 430.874 150.634 430.527 150.98C430.181 151.327 429.789 151.737 429.352 152.211C428.914 152.685 428.458 153.204 427.984 153.77C427.51 154.335 427.064 154.891 426.645 155.438C426.225 155.966 425.842 156.458 425.496 156.914C425.15 157.352 424.895 157.698 424.73 157.953C424.184 158.755 423.609 159.612 423.008 160.523C422.424 161.435 421.832 162.374 421.23 163.34C420.647 164.288 420.073 165.254 419.508 166.238C418.943 167.204 418.414 168.161 417.922 169.109C417.576 169.784 417.165 170.385 416.691 170.914C416.236 171.461 415.78 171.917 415.324 172.281C414.887 172.646 414.467 172.928 414.066 173.129C413.684 173.329 413.392 173.43 413.191 173.43C412.025 173.43 410.913 172.71 409.855 171.27C409.91 170.996 409.947 170.759 409.965 170.559C409.983 170.376 409.992 170.221 409.992 170.094C409.992 169.51 409.919 168.909 409.773 168.289C409.628 167.669 409.418 167.013 409.145 166.32C408.871 165.609 408.534 164.844 408.133 164.023C407.75 163.185 407.322 162.273 406.848 161.289C405.809 159.174 405.043 157.206 404.551 155.383C404.059 153.56 403.812 151.965 403.812 150.598C403.812 150.033 403.895 149.449 404.059 148.848C404.241 148.228 404.496 147.663 404.824 147.152C405.171 146.624 405.599 146.195 406.109 145.867C406.62 145.521 407.203 145.348 407.859 145.348C408.88 145.348 409.6 145.548 410.02 145.949C410.457 146.35 410.676 147.079 410.676 148.137C410.676 148.629 410.621 149.176 410.512 149.777C410.421 150.379 410.375 150.944 410.375 151.473C410.375 152.457 410.521 153.533 410.812 154.699C411.122 155.848 411.487 157.014 411.906 158.199C412.344 159.384 412.799 160.542 413.273 161.672C413.747 162.784 414.158 163.796 414.504 164.707C414.923 164.178 415.397 163.495 415.926 162.656C416.473 161.799 417.02 160.888 417.566 159.922C418.132 158.956 418.688 157.99 419.234 157.023C419.781 156.039 420.283 155.164 420.738 154.398C421.085 153.815 421.486 153.159 421.941 152.43C422.397 151.682 422.853 150.944 423.309 150.215C423.764 149.486 424.193 148.811 424.594 148.191C425.013 147.572 425.359 147.089 425.633 146.742C426.18 146.049 426.863 145.512 427.684 145.129C428.504 144.728 429.379 144.527 430.309 144.527C430.819 144.527 431.266 144.637 431.648 144.855C432.049 145.056 432.378 145.32 432.633 145.648C432.888 145.977 433.079 146.332 433.207 146.715C433.353 147.098 433.426 147.462 433.426 147.809Z" fill="white"/>
<path d="M107.77 24.2405C97.0428 24.2405 82.9584 22.7485 73.1723 27.1966C60.6852 32.8726 44.2137 28.8219 32.4438 36.065C26.7371 39.5768 1.77989 45.193 9.45188 58.6189C17.5593 72.8069 44.8985 58.6041 56.0926 57.7431C63.0375 57.2088 68.8405 53.8016 76.2379 53.8016C82.4786 53.8016 88.7193 53.8016 94.9599 53.8016C107.155 53.8016 113.682 54.3066 113.682 67.5967C113.682 73.0348 104.781 75.2221 99.8868 75.4797C94.2011 75.7789 93.3272 78.0577 88.9382 79.3117C82.707 81.092 73.0221 80.6989 66.6032 81.2824C58.8232 81.9897 52.3331 84.2036 45.1441 86.8662C34.4566 90.8245 24.2759 92.5231 14.1597 98.1431C11.5877 99.572 6.27009 103.853 10.2183 107.011C14.5298 110.461 21.446 108.982 26.9695 108.982C42.4578 108.982 57.5914 105.041 73.2818 105.041C77.8802 105.041 82.4786 105.041 87.077 105.041C91.898 105.041 91.349 112.924 86.0916 112.924C74.9381 112.924 61.1601 118.027 50.6184 121.792C45.7488 123.531 20.493 134.602 38.7939 134.602C47.3774 134.602 64.4135 133.051 64.4135 145.441C64.4135 151.424 59.5956 151.082 58.6108 155.513C57.0609 162.488 62.0215 161.349 64.4135 166.134" stroke="white" stroke-width="9" stroke-linecap="round"/>
<path d="M48.0269 71.8829C61.5937 71.8829 70.0902 64 83.5001 64" stroke="#C62220" stroke-width="9" stroke-linecap="round"/>
</svg>
